%TF.GenerationSoftware,KiCad,Pcbnew,(6.0.4)*%
%TF.CreationDate,2022-08-26T16:16:49-04:00*%
%TF.ProjectId,Prototype Numpad,50726f74-6f74-4797-9065-204e756d7061,rev?*%
%TF.SameCoordinates,Original*%
%TF.FileFunction,Soldermask,Bot*%
%TF.FilePolarity,Negative*%
%FSLAX46Y46*%
G04 Gerber Fmt 4.6, Leading zero omitted, Abs format (unit mm)*
G04 Created by KiCad (PCBNEW (6.0.4)) date 2022-08-26 16:16:49*
%MOMM*%
%LPD*%
G01*
G04 APERTURE LIST*
G04 Aperture macros list*
%AMRoundRect*
0 Rectangle with rounded corners*
0 $1 Rounding radius*
0 $2 $3 $4 $5 $6 $7 $8 $9 X,Y pos of 4 corners*
0 Add a 4 corners polygon primitive as box body*
4,1,4,$2,$3,$4,$5,$6,$7,$8,$9,$2,$3,0*
0 Add four circle primitives for the rounded corners*
1,1,$1+$1,$2,$3*
1,1,$1+$1,$4,$5*
1,1,$1+$1,$6,$7*
1,1,$1+$1,$8,$9*
0 Add four rect primitives between the rounded corners*
20,1,$1+$1,$2,$3,$4,$5,0*
20,1,$1+$1,$4,$5,$6,$7,0*
20,1,$1+$1,$6,$7,$8,$9,0*
20,1,$1+$1,$8,$9,$2,$3,0*%
G04 Aperture macros list end*
%ADD10C,6.400000*%
%ADD11C,2.082800*%
%ADD12RoundRect,0.101600X0.939800X0.939800X-0.939800X0.939800X-0.939800X-0.939800X0.939800X-0.939800X0*%
G04 APERTURE END LIST*
%TO.C,QR\u002A\u002A\u002A\u002A\u002A*%
G36*
X298740000Y-240270000D02*
G01*
X282140000Y-240270000D01*
X282140000Y-256870000D01*
X298740000Y-256870000D01*
X298740000Y-240270000D01*
G37*
%TD*%
D10*
%TO.C,H4*%
X257175000Y-147637500D03*
%TD*%
%TO.C,H3*%
X323850000Y-147637500D03*
%TD*%
D11*
%TO.C,U1*%
X253950000Y-155130500D03*
X256490000Y-155384500D03*
X259030000Y-155130500D03*
X261570000Y-155384500D03*
X264110000Y-155130500D03*
X266650000Y-155384500D03*
X269190000Y-155130500D03*
X271730000Y-155384500D03*
X274270000Y-155130500D03*
X276810000Y-155384500D03*
X279350000Y-155130500D03*
X281890000Y-155384500D03*
X284430000Y-155130500D03*
X286970000Y-155384500D03*
X289510000Y-155130500D03*
X292050000Y-155384500D03*
X294590000Y-155130500D03*
X297130000Y-155384500D03*
X299670000Y-155130500D03*
X302210000Y-155384500D03*
X302210000Y-139890500D03*
X299670000Y-140144500D03*
X297130000Y-139890500D03*
X294590000Y-140144500D03*
X292050000Y-139890500D03*
X289510000Y-140144500D03*
X286970000Y-139890500D03*
X284430000Y-140144500D03*
X281890000Y-139890500D03*
X279350000Y-140144500D03*
X276810000Y-139890500D03*
X274270000Y-140144500D03*
X271730000Y-139890500D03*
X269190000Y-140144500D03*
X266650000Y-139890500D03*
X264110000Y-140144500D03*
X261570000Y-139890500D03*
X259030000Y-140144500D03*
X256490000Y-139890500D03*
X253950000Y-140144500D03*
D12*
X298227000Y-151447500D03*
D11*
X297973000Y-148907500D03*
X298227000Y-146367500D03*
X297973000Y-143827500D03*
%TD*%
D10*
%TO.C,H1*%
X257175000Y-259556250D03*
%TD*%
%TO.C,H2*%
X323850000Y-259556250D03*
%TD*%
M02*
