%TF.GenerationSoftware,KiCad,Pcbnew,(6.0.4)*%
%TF.CreationDate,2022-08-26T16:16:49-04:00*%
%TF.ProjectId,Prototype Numpad,50726f74-6f74-4797-9065-204e756d7061,rev?*%
%TF.SameCoordinates,Original*%
%TF.FileFunction,Soldermask,Top*%
%TF.FilePolarity,Negative*%
%FSLAX46Y46*%
G04 Gerber Fmt 4.6, Leading zero omitted, Abs format (unit mm)*
G04 Created by KiCad (PCBNEW (6.0.4)) date 2022-08-26 16:16:49*
%MOMM*%
%LPD*%
G01*
G04 APERTURE LIST*
G04 Aperture macros list*
%AMRoundRect*
0 Rectangle with rounded corners*
0 $1 Rounding radius*
0 $2 $3 $4 $5 $6 $7 $8 $9 X,Y pos of 4 corners*
0 Add a 4 corners polygon primitive as box body*
4,1,4,$2,$3,$4,$5,$6,$7,$8,$9,$2,$3,0*
0 Add four circle primitives for the rounded corners*
1,1,$1+$1,$2,$3*
1,1,$1+$1,$4,$5*
1,1,$1+$1,$6,$7*
1,1,$1+$1,$8,$9*
0 Add four rect primitives between the rounded corners*
20,1,$1+$1,$2,$3,$4,$5,0*
20,1,$1+$1,$4,$5,$6,$7,0*
20,1,$1+$1,$6,$7,$8,$9,0*
20,1,$1+$1,$8,$9,$2,$3,0*%
G04 Aperture macros list end*
%ADD10RoundRect,0.150000X0.309359X0.521491X-0.521491X-0.309359X-0.309359X-0.521491X0.521491X0.309359X0*%
%ADD11RoundRect,0.150000X-0.309359X-0.521491X0.521491X0.309359X0.309359X0.521491X-0.521491X-0.309359X0*%
%ADD12RoundRect,0.218750X0.218750X0.256250X-0.218750X0.256250X-0.218750X-0.256250X0.218750X-0.256250X0*%
%ADD13RoundRect,0.150000X0.625000X-0.150000X0.625000X0.150000X-0.625000X0.150000X-0.625000X-0.150000X0*%
%ADD14RoundRect,0.250000X0.650000X-0.350000X0.650000X0.350000X-0.650000X0.350000X-0.650000X-0.350000X0*%
%ADD15R,1.750000X0.450000*%
%ADD16RoundRect,0.135000X0.185000X-0.135000X0.185000X0.135000X-0.185000X0.135000X-0.185000X-0.135000X0*%
%ADD17RoundRect,0.135000X-0.185000X0.135000X-0.185000X-0.135000X0.185000X-0.135000X0.185000X0.135000X0*%
%ADD18RoundRect,0.218750X0.381250X-0.218750X0.381250X0.218750X-0.381250X0.218750X-0.381250X-0.218750X0*%
%ADD19C,6.400000*%
%ADD20C,2.000000*%
%ADD21RoundRect,0.140000X0.170000X-0.140000X0.170000X0.140000X-0.170000X0.140000X-0.170000X-0.140000X0*%
%ADD22RoundRect,0.150000X0.521491X-0.309359X-0.309359X0.521491X-0.521491X0.309359X0.309359X-0.521491X0*%
%ADD23R,1.200000X0.900000*%
%ADD24C,2.082800*%
%ADD25RoundRect,0.101600X0.939800X0.939800X-0.939800X0.939800X-0.939800X-0.939800X0.939800X-0.939800X0*%
%ADD26R,1.500000X2.000000*%
%ADD27R,3.800000X2.000000*%
G04 APERTURE END LIST*
D10*
%TO.C,U9*%
X285576751Y-219961752D03*
X284233248Y-218618249D03*
X283579174Y-220615826D03*
%TD*%
D11*
%TO.C,U17*%
X301957423Y-181844074D03*
X303300926Y-183187577D03*
X303955000Y-181190000D03*
%TD*%
%TO.C,U14*%
X263857423Y-200894074D03*
X265200926Y-202237577D03*
X265855000Y-200240000D03*
%TD*%
D10*
%TO.C,U3*%
X304626751Y-258061752D03*
X303283248Y-256718249D03*
X302629174Y-258715826D03*
%TD*%
%TO.C,U6*%
X285576751Y-239011752D03*
X284233248Y-237668249D03*
X283579174Y-239665826D03*
%TD*%
D11*
%TO.C,U11*%
X321007423Y-210419074D03*
X322350926Y-211762577D03*
X323005000Y-209765000D03*
%TD*%
D12*
%TO.C,F1*%
X311317501Y-139550003D03*
X309742501Y-139550003D03*
%TD*%
D11*
%TO.C,U13*%
X282907423Y-200894074D03*
X284250926Y-202237577D03*
X284905000Y-200240000D03*
%TD*%
D13*
%TO.C,J1*%
X256118750Y-165806250D03*
X256118750Y-164806250D03*
X256118750Y-163806250D03*
X256118750Y-162806250D03*
D14*
X253593750Y-167106250D03*
X253593750Y-161506250D03*
%TD*%
D15*
%TO.C,AM0*%
X270243750Y-208356250D03*
X270243750Y-209006250D03*
X270243750Y-209656250D03*
X270243750Y-210306250D03*
X270243750Y-210956250D03*
X270243750Y-211606250D03*
X270243750Y-212256250D03*
X270243750Y-212906250D03*
X270243750Y-213556250D03*
X270243750Y-214206250D03*
X270243750Y-214856250D03*
X270243750Y-215506250D03*
X277443750Y-215506250D03*
X277443750Y-214856250D03*
X277443750Y-214206250D03*
X277443750Y-213556250D03*
X277443750Y-212906250D03*
X277443750Y-212256250D03*
X277443750Y-211606250D03*
X277443750Y-210956250D03*
X277443750Y-210306250D03*
X277443750Y-209656250D03*
X277443750Y-209006250D03*
X277443750Y-208356250D03*
%TD*%
D16*
%TO.C,R1*%
X258730000Y-162810000D03*
X258730000Y-161790000D03*
%TD*%
D17*
%TO.C,R2*%
X258730000Y-163800000D03*
X258730000Y-164820000D03*
%TD*%
D18*
%TO.C,FB1*%
X308530000Y-143312502D03*
X308530000Y-141187502D03*
%TD*%
D11*
%TO.C,U15*%
X263857423Y-181844074D03*
X265200926Y-183187577D03*
X265855000Y-181190000D03*
%TD*%
D19*
%TO.C,H4*%
X257175000Y-147637500D03*
%TD*%
D15*
%TO.C,AM1*%
X303581250Y-208356250D03*
X303581250Y-209006250D03*
X303581250Y-209656250D03*
X303581250Y-210306250D03*
X303581250Y-210956250D03*
X303581250Y-211606250D03*
X303581250Y-212256250D03*
X303581250Y-212906250D03*
X303581250Y-213556250D03*
X303581250Y-214206250D03*
X303581250Y-214856250D03*
X303581250Y-215506250D03*
X310781250Y-215506250D03*
X310781250Y-214856250D03*
X310781250Y-214206250D03*
X310781250Y-213556250D03*
X310781250Y-212906250D03*
X310781250Y-212256250D03*
X310781250Y-211606250D03*
X310781250Y-210956250D03*
X310781250Y-210306250D03*
X310781250Y-209656250D03*
X310781250Y-209006250D03*
X310781250Y-208356250D03*
%TD*%
D20*
%TO.C,FID2*%
X318880000Y-142300000D03*
%TD*%
D21*
%TO.C,C2*%
X311530000Y-143530000D03*
X311530000Y-142570000D03*
%TD*%
D10*
%TO.C,U5*%
X304626751Y-239011752D03*
X303283248Y-237668249D03*
X302629174Y-239665826D03*
%TD*%
D22*
%TO.C,U8*%
X265183248Y-221287577D03*
X266526751Y-219944074D03*
X264529174Y-219290000D03*
%TD*%
D23*
%TO.C,D1*%
X313430001Y-140000001D03*
X313430001Y-143300001D03*
%TD*%
D19*
%TO.C,H3*%
X323850000Y-147637500D03*
%TD*%
D22*
%TO.C,U7*%
X265183248Y-240337577D03*
X266526751Y-238994074D03*
X264529174Y-238340000D03*
%TD*%
D21*
%TO.C,C1*%
X310230000Y-143530002D03*
X310230000Y-142570002D03*
%TD*%
D10*
%TO.C,U10*%
X304626751Y-219961752D03*
X303283248Y-218618249D03*
X302629174Y-220615826D03*
%TD*%
D20*
%TO.C,FID3*%
X262910000Y-167070000D03*
%TD*%
D10*
%TO.C,U4*%
X323676751Y-248536752D03*
X322333248Y-247193249D03*
X321679174Y-249190826D03*
%TD*%
D20*
%TO.C,FID1*%
X287320000Y-251400000D03*
%TD*%
D11*
%TO.C,U12*%
X301957423Y-200894074D03*
X303300926Y-202237577D03*
X303955000Y-200240000D03*
%TD*%
%TO.C,U16*%
X282907423Y-181844074D03*
X284250926Y-183187577D03*
X284905000Y-181190000D03*
%TD*%
D24*
%TO.C,U1*%
X253950000Y-155130500D03*
X256490000Y-155384500D03*
X259030000Y-155130500D03*
X261570000Y-155384500D03*
X264110000Y-155130500D03*
X266650000Y-155384500D03*
X269190000Y-155130500D03*
X271730000Y-155384500D03*
X274270000Y-155130500D03*
X276810000Y-155384500D03*
X279350000Y-155130500D03*
X281890000Y-155384500D03*
X284430000Y-155130500D03*
X286970000Y-155384500D03*
X289510000Y-155130500D03*
X292050000Y-155384500D03*
X294590000Y-155130500D03*
X297130000Y-155384500D03*
X299670000Y-155130500D03*
X302210000Y-155384500D03*
X302210000Y-139890500D03*
X299670000Y-140144500D03*
X297130000Y-139890500D03*
X294590000Y-140144500D03*
X292050000Y-139890500D03*
X289510000Y-140144500D03*
X286970000Y-139890500D03*
X284430000Y-140144500D03*
X281890000Y-139890500D03*
X279350000Y-140144500D03*
X276810000Y-139890500D03*
X274270000Y-140144500D03*
X271730000Y-139890500D03*
X269190000Y-140144500D03*
X266650000Y-139890500D03*
X264110000Y-140144500D03*
X261570000Y-139890500D03*
X259030000Y-140144500D03*
X256490000Y-139890500D03*
X253950000Y-140144500D03*
D25*
X298227000Y-151447500D03*
D24*
X297973000Y-148907500D03*
X298227000Y-146367500D03*
X297973000Y-143827500D03*
%TD*%
D19*
%TO.C,H1*%
X257175000Y-259556250D03*
%TD*%
D26*
%TO.C,LDO1*%
X313230000Y-145500002D03*
D27*
X310930000Y-151800002D03*
D26*
X310930000Y-145500002D03*
X308630000Y-145500002D03*
%TD*%
D11*
%TO.C,U18*%
X321007423Y-181844074D03*
X322350926Y-183187577D03*
X323005000Y-181190000D03*
%TD*%
D10*
%TO.C,U2*%
X276054664Y-258058839D03*
X274711161Y-256715336D03*
X274057087Y-258712913D03*
%TD*%
D19*
%TO.C,H2*%
X323850000Y-259556250D03*
%TD*%
M02*
