M48
; DRILL file {KiCad (6.0.4)} date Fri Aug 26 16:16:49 2022
; FORMAT={-:-/ absolute / inch / decimal}
; #@! TF.CreationDate,2022-08-26T16:16:49-04:00
; #@! TF.GenerationSoftware,Kicad,Pcbnew,(6.0.4)
; #@! TF.FileFunction,Plated,1,2,PTH
FMAT,2
INCH
; #@! TA.AperFunction,Plated,PTH,ViaDrill
T1C0.0118
; #@! TA.AperFunction,Plated,PTH,ViaDrill
T2C0.0157
; #@! TA.AperFunction,Plated,PTH,ComponentDrill
T3C0.0400
; #@! TA.AperFunction,Plated,PTH,ComponentDrill
T4C0.1260
%
G90
G05
T1
X10.1959Y-6.5429
X10.2589Y-6.4307
X10.2929Y-6.4764
X10.3051Y-6.4006
X10.3449Y-6.4307
X10.3559Y-9.3248
X10.3573Y-8.5758
X10.4232Y-6.3278
X10.4667Y-7.0522
X10.4689Y-7.7929
X10.6394Y-8.1437
X10.6394Y-8.5488
X10.7122Y-8.4866
X10.7259Y-8.4383
X10.7874Y-8.3311
X10.7896Y-10.2755
X10.837Y-8.4535
X10.8587Y-8.4839
X11.0289Y-9.4357
X11.1171Y-8.7323
X11.2167Y-7.0502
X11.2402Y-6.4307
X11.2732Y-7.9878
X11.2969Y-6.4728
X11.3237Y-6.4307
X11.337Y-8.45
X11.3484Y-6.4665
X11.4063Y-8.4809
X11.4488Y-6.5276
X11.4724Y-8.5394
X11.5709Y-8.5069
X11.878Y-8.5053
X11.9145Y-9.5366
X11.9145Y-10.2756
X11.9146Y-8.7799
X11.9524Y-8.1543
X11.965Y-7.7626
X11.9677Y-7.0303
X12.0476Y-8.5583
X12.0528Y-8.5075
X12.0874Y-8.3106
X12.1382Y-8.4547
X12.1614Y-8.4811
X12.6646Y-9.9173
X12.7161Y-8.1685
X12.7189Y-7.0366
T2
X12.4126Y-5.7274
T3
X9.998Y-5.5175
X9.998Y-6.1075
X10.098Y-5.5075
X10.098Y-6.1175
X10.198Y-5.5175
X10.198Y-6.1075
X10.298Y-5.5075
X10.298Y-6.1175
X10.398Y-5.5175
X10.398Y-6.1075
X10.498Y-5.5075
X10.498Y-6.1175
X10.598Y-5.5175
X10.598Y-6.1075
X10.698Y-5.5075
X10.698Y-6.1175
X10.798Y-5.5175
X10.798Y-6.1075
X10.898Y-5.5075
X10.898Y-6.1175
X10.998Y-5.5175
X10.998Y-6.1075
X11.098Y-5.5075
X11.098Y-6.1175
X11.198Y-5.5175
X11.198Y-6.1075
X11.298Y-5.5075
X11.298Y-6.1175
X11.398Y-5.5175
X11.398Y-6.1075
X11.498Y-5.5075
X11.498Y-6.1175
X11.598Y-5.5175
X11.598Y-6.1075
X11.698Y-5.5075
X11.698Y-6.1175
X11.7312Y-5.6625
X11.7312Y-5.8625
X11.7412Y-5.7625
X11.7412Y-5.9625
X11.798Y-5.5175
X11.798Y-6.1075
X11.898Y-5.5075
X11.898Y-6.1175
T4
X10.125Y-5.8125
X10.125Y-10.2188
X12.75Y-5.8125
X12.75Y-10.2188
T0
M30
