%TF.GenerationSoftware,KiCad,Pcbnew,(6.0.4)*%
%TF.CreationDate,2022-08-26T16:16:49-04:00*%
%TF.ProjectId,Prototype Numpad,50726f74-6f74-4797-9065-204e756d7061,rev?*%
%TF.SameCoordinates,Original*%
%TF.FileFunction,Legend,Top*%
%TF.FilePolarity,Positive*%
%FSLAX46Y46*%
G04 Gerber Fmt 4.6, Leading zero omitted, Abs format (unit mm)*
G04 Created by KiCad (PCBNEW (6.0.4)) date 2022-08-26 16:16:49*
%MOMM*%
%LPD*%
G01*
G04 APERTURE LIST*
G04 Aperture macros list*
%AMRoundRect*
0 Rectangle with rounded corners*
0 $1 Rounding radius*
0 $2 $3 $4 $5 $6 $7 $8 $9 X,Y pos of 4 corners*
0 Add a 4 corners polygon primitive as box body*
4,1,4,$2,$3,$4,$5,$6,$7,$8,$9,$2,$3,0*
0 Add four circle primitives for the rounded corners*
1,1,$1+$1,$2,$3*
1,1,$1+$1,$4,$5*
1,1,$1+$1,$6,$7*
1,1,$1+$1,$8,$9*
0 Add four rect primitives between the rounded corners*
20,1,$1+$1,$2,$3,$4,$5,0*
20,1,$1+$1,$4,$5,$6,$7,0*
20,1,$1+$1,$6,$7,$8,$9,0*
20,1,$1+$1,$8,$9,$2,$3,0*%
G04 Aperture macros list end*
%ADD10C,0.150000*%
%ADD11C,0.200000*%
%ADD12C,0.250000*%
%ADD13C,0.120000*%
%ADD14C,0.125000*%
%ADD15RoundRect,0.150000X0.309359X0.521491X-0.521491X-0.309359X-0.309359X-0.521491X0.521491X0.309359X0*%
%ADD16RoundRect,0.150000X-0.309359X-0.521491X0.521491X0.309359X0.309359X0.521491X-0.521491X-0.309359X0*%
%ADD17RoundRect,0.218750X0.218750X0.256250X-0.218750X0.256250X-0.218750X-0.256250X0.218750X-0.256250X0*%
%ADD18RoundRect,0.150000X0.625000X-0.150000X0.625000X0.150000X-0.625000X0.150000X-0.625000X-0.150000X0*%
%ADD19RoundRect,0.250000X0.650000X-0.350000X0.650000X0.350000X-0.650000X0.350000X-0.650000X-0.350000X0*%
%ADD20R,1.750000X0.450000*%
%ADD21RoundRect,0.135000X0.185000X-0.135000X0.185000X0.135000X-0.185000X0.135000X-0.185000X-0.135000X0*%
%ADD22RoundRect,0.135000X-0.185000X0.135000X-0.185000X-0.135000X0.185000X-0.135000X0.185000X0.135000X0*%
%ADD23RoundRect,0.218750X0.381250X-0.218750X0.381250X0.218750X-0.381250X0.218750X-0.381250X-0.218750X0*%
%ADD24C,6.400000*%
%ADD25C,2.000000*%
%ADD26RoundRect,0.140000X0.170000X-0.140000X0.170000X0.140000X-0.170000X0.140000X-0.170000X-0.140000X0*%
%ADD27RoundRect,0.150000X0.521491X-0.309359X-0.309359X0.521491X-0.521491X0.309359X0.309359X-0.521491X0*%
%ADD28R,1.200000X0.900000*%
%ADD29C,2.082800*%
%ADD30RoundRect,0.101600X0.939800X0.939800X-0.939800X0.939800X-0.939800X-0.939800X0.939800X-0.939800X0*%
%ADD31R,1.500000X2.000000*%
%ADD32R,3.800000X2.000000*%
G04 APERTURE END LIST*
D10*
X307775714Y-218026666D02*
X308251904Y-218026666D01*
X307680476Y-218312380D02*
X308013809Y-217312380D01*
X308347142Y-218312380D01*
X309109047Y-217645714D02*
X309109047Y-218312380D01*
X308680476Y-217645714D02*
X308680476Y-218169523D01*
X308728095Y-218264761D01*
X308823333Y-218312380D01*
X308966190Y-218312380D01*
X309061428Y-218264761D01*
X309109047Y-218217142D01*
X309442380Y-217645714D02*
X309823333Y-217645714D01*
X309585238Y-217312380D02*
X309585238Y-218169523D01*
X309632857Y-218264761D01*
X309728095Y-218312380D01*
X309823333Y-218312380D01*
X310299523Y-218312380D02*
X310204285Y-218264761D01*
X310156666Y-218217142D01*
X310109047Y-218121904D01*
X310109047Y-217836190D01*
X310156666Y-217740952D01*
X310204285Y-217693333D01*
X310299523Y-217645714D01*
X310442380Y-217645714D01*
X310537619Y-217693333D01*
X310585238Y-217740952D01*
X310632857Y-217836190D01*
X310632857Y-218121904D01*
X310585238Y-218217142D01*
X310537619Y-218264761D01*
X310442380Y-218312380D01*
X310299523Y-218312380D01*
X311061428Y-218312380D02*
X311061428Y-217645714D01*
X311061428Y-217740952D02*
X311109047Y-217693333D01*
X311204285Y-217645714D01*
X311347142Y-217645714D01*
X311442380Y-217693333D01*
X311490000Y-217788571D01*
X311490000Y-218312380D01*
X311490000Y-217788571D02*
X311537619Y-217693333D01*
X311632857Y-217645714D01*
X311775714Y-217645714D01*
X311870952Y-217693333D01*
X311918571Y-217788571D01*
X311918571Y-218312380D01*
X312823333Y-218312380D02*
X312823333Y-217788571D01*
X312775714Y-217693333D01*
X312680476Y-217645714D01*
X312490000Y-217645714D01*
X312394761Y-217693333D01*
X312823333Y-218264761D02*
X312728095Y-218312380D01*
X312490000Y-218312380D01*
X312394761Y-218264761D01*
X312347142Y-218169523D01*
X312347142Y-218074285D01*
X312394761Y-217979047D01*
X312490000Y-217931428D01*
X312728095Y-217931428D01*
X312823333Y-217883809D01*
X313156666Y-217645714D02*
X313537619Y-217645714D01*
X313299523Y-217312380D02*
X313299523Y-218169523D01*
X313347142Y-218264761D01*
X313442380Y-218312380D01*
X313537619Y-218312380D01*
X314251904Y-218264761D02*
X314156666Y-218312380D01*
X313966190Y-218312380D01*
X313870952Y-218264761D01*
X313823333Y-218169523D01*
X313823333Y-217788571D01*
X313870952Y-217693333D01*
X313966190Y-217645714D01*
X314156666Y-217645714D01*
X314251904Y-217693333D01*
X314299523Y-217788571D01*
X314299523Y-217883809D01*
X313823333Y-217979047D01*
X315156666Y-218312380D02*
X315156666Y-217312380D01*
X315156666Y-218264761D02*
X315061428Y-218312380D01*
X314870952Y-218312380D01*
X314775714Y-218264761D01*
X314728095Y-218217142D01*
X314680476Y-218121904D01*
X314680476Y-217836190D01*
X314728095Y-217740952D01*
X314775714Y-217693333D01*
X314870952Y-217645714D01*
X315061428Y-217645714D01*
X315156666Y-217693333D01*
X308180476Y-219922380D02*
X308180476Y-218922380D01*
X308513809Y-219636666D01*
X308847142Y-218922380D01*
X308847142Y-219922380D01*
X309751904Y-219922380D02*
X309751904Y-219398571D01*
X309704285Y-219303333D01*
X309609047Y-219255714D01*
X309418571Y-219255714D01*
X309323333Y-219303333D01*
X309751904Y-219874761D02*
X309656666Y-219922380D01*
X309418571Y-219922380D01*
X309323333Y-219874761D01*
X309275714Y-219779523D01*
X309275714Y-219684285D01*
X309323333Y-219589047D01*
X309418571Y-219541428D01*
X309656666Y-219541428D01*
X309751904Y-219493809D01*
X310656666Y-219874761D02*
X310561428Y-219922380D01*
X310370952Y-219922380D01*
X310275714Y-219874761D01*
X310228095Y-219827142D01*
X310180476Y-219731904D01*
X310180476Y-219446190D01*
X310228095Y-219350952D01*
X310275714Y-219303333D01*
X310370952Y-219255714D01*
X310561428Y-219255714D01*
X310656666Y-219303333D01*
X311513809Y-219922380D02*
X311513809Y-219398571D01*
X311466190Y-219303333D01*
X311370952Y-219255714D01*
X311180476Y-219255714D01*
X311085238Y-219303333D01*
X311513809Y-219874761D02*
X311418571Y-219922380D01*
X311180476Y-219922380D01*
X311085238Y-219874761D01*
X311037619Y-219779523D01*
X311037619Y-219684285D01*
X311085238Y-219589047D01*
X311180476Y-219541428D01*
X311418571Y-219541428D01*
X311513809Y-219493809D01*
X311990000Y-219922380D02*
X311990000Y-219255714D01*
X311990000Y-219446190D02*
X312037619Y-219350952D01*
X312085238Y-219303333D01*
X312180476Y-219255714D01*
X312275714Y-219255714D01*
X312990000Y-219874761D02*
X312894761Y-219922380D01*
X312704285Y-219922380D01*
X312609047Y-219874761D01*
X312561428Y-219779523D01*
X312561428Y-219398571D01*
X312609047Y-219303333D01*
X312704285Y-219255714D01*
X312894761Y-219255714D01*
X312990000Y-219303333D01*
X313037619Y-219398571D01*
X313037619Y-219493809D01*
X312561428Y-219589047D01*
X313466190Y-219255714D02*
X313466190Y-219922380D01*
X313466190Y-219350952D02*
X313513809Y-219303333D01*
X313609047Y-219255714D01*
X313751904Y-219255714D01*
X313847142Y-219303333D01*
X313894761Y-219398571D01*
X313894761Y-219922380D01*
X314799523Y-219922380D02*
X314799523Y-219398571D01*
X314751904Y-219303333D01*
X314656666Y-219255714D01*
X314466190Y-219255714D01*
X314370952Y-219303333D01*
X314799523Y-219874761D02*
X314704285Y-219922380D01*
X314466190Y-219922380D01*
X314370952Y-219874761D01*
X314323333Y-219779523D01*
X314323333Y-219684285D01*
X314370952Y-219589047D01*
X314466190Y-219541428D01*
X314704285Y-219541428D01*
X314799523Y-219493809D01*
X311775714Y-221532380D02*
X311204285Y-221532380D01*
X311490000Y-221532380D02*
X311490000Y-220532380D01*
X311394761Y-220675238D01*
X311299523Y-220770476D01*
X311204285Y-220818095D01*
X270504761Y-145202380D02*
X270504761Y-144202380D01*
X270742857Y-144202380D01*
X270885714Y-144250000D01*
X270980952Y-144345238D01*
X271028571Y-144440476D01*
X271076190Y-144630952D01*
X271076190Y-144773809D01*
X271028571Y-144964285D01*
X270980952Y-145059523D01*
X270885714Y-145154761D01*
X270742857Y-145202380D01*
X270504761Y-145202380D01*
X271933333Y-144535714D02*
X271933333Y-145202380D01*
X271504761Y-144535714D02*
X271504761Y-145059523D01*
X271552380Y-145154761D01*
X271647619Y-145202380D01*
X271790476Y-145202380D01*
X271885714Y-145154761D01*
X271933333Y-145107142D01*
X272838095Y-145202380D02*
X272838095Y-144678571D01*
X272790476Y-144583333D01*
X272695238Y-144535714D01*
X272504761Y-144535714D01*
X272409523Y-144583333D01*
X272838095Y-145154761D02*
X272742857Y-145202380D01*
X272504761Y-145202380D01*
X272409523Y-145154761D01*
X272361904Y-145059523D01*
X272361904Y-144964285D01*
X272409523Y-144869047D01*
X272504761Y-144821428D01*
X272742857Y-144821428D01*
X272838095Y-144773809D01*
X273457142Y-145202380D02*
X273361904Y-145154761D01*
X273314285Y-145059523D01*
X273314285Y-144202380D01*
X273790476Y-145154761D02*
X273933333Y-145202380D01*
X274171428Y-145202380D01*
X274266666Y-145154761D01*
X274314285Y-145107142D01*
X274361904Y-145011904D01*
X274361904Y-144916666D01*
X274314285Y-144821428D01*
X274266666Y-144773809D01*
X274171428Y-144726190D01*
X273980952Y-144678571D01*
X273885714Y-144630952D01*
X273838095Y-144583333D01*
X273790476Y-144488095D01*
X273790476Y-144392857D01*
X273838095Y-144297619D01*
X273885714Y-144250000D01*
X273980952Y-144202380D01*
X274219047Y-144202380D01*
X274361904Y-144250000D01*
X274790476Y-145202380D02*
X274790476Y-144202380D01*
X275219047Y-145202380D02*
X275219047Y-144678571D01*
X275171428Y-144583333D01*
X275076190Y-144535714D01*
X274933333Y-144535714D01*
X274838095Y-144583333D01*
X274790476Y-144630952D01*
X275838095Y-145202380D02*
X275742857Y-145154761D01*
X275695238Y-145107142D01*
X275647619Y-145011904D01*
X275647619Y-144726190D01*
X275695238Y-144630952D01*
X275742857Y-144583333D01*
X275838095Y-144535714D01*
X275980952Y-144535714D01*
X276076190Y-144583333D01*
X276123809Y-144630952D01*
X276171428Y-144726190D01*
X276171428Y-145011904D01*
X276123809Y-145107142D01*
X276076190Y-145154761D01*
X275980952Y-145202380D01*
X275838095Y-145202380D01*
X277028571Y-145154761D02*
X276933333Y-145202380D01*
X276742857Y-145202380D01*
X276647619Y-145154761D01*
X276600000Y-145107142D01*
X276552380Y-145011904D01*
X276552380Y-144726190D01*
X276600000Y-144630952D01*
X276647619Y-144583333D01*
X276742857Y-144535714D01*
X276933333Y-144535714D01*
X277028571Y-144583333D01*
X277457142Y-145202380D02*
X277457142Y-144202380D01*
X277552380Y-144821428D02*
X277838095Y-145202380D01*
X277838095Y-144535714D02*
X277457142Y-144916666D01*
X279123809Y-145059523D02*
X278885714Y-144773809D01*
X278695238Y-145059523D02*
X278695238Y-144392857D01*
X278980952Y-144392857D01*
X279076190Y-144440476D01*
X279123809Y-144535714D01*
X279123809Y-144630952D01*
X279076190Y-144726190D01*
X278980952Y-144773809D01*
X278695238Y-144773809D01*
X278885714Y-144059523D02*
X278647619Y-144107142D01*
X278409523Y-144250000D01*
X278266666Y-144488095D01*
X278219047Y-144726190D01*
X278266666Y-144964285D01*
X278409523Y-145202380D01*
X278647619Y-145345238D01*
X278885714Y-145392857D01*
X279123809Y-145345238D01*
X279361904Y-145202380D01*
X279504761Y-144964285D01*
X279552380Y-144726190D01*
X279504761Y-144488095D01*
X279361904Y-144250000D01*
X279123809Y-144107142D01*
X278885714Y-144059523D01*
X281314285Y-145107142D02*
X281266666Y-145154761D01*
X281123809Y-145202380D01*
X281028571Y-145202380D01*
X280885714Y-145154761D01*
X280790476Y-145059523D01*
X280742857Y-144964285D01*
X280695238Y-144773809D01*
X280695238Y-144630952D01*
X280742857Y-144440476D01*
X280790476Y-144345238D01*
X280885714Y-144250000D01*
X281028571Y-144202380D01*
X281123809Y-144202380D01*
X281266666Y-144250000D01*
X281314285Y-144297619D01*
X281885714Y-145202380D02*
X281790476Y-145154761D01*
X281742857Y-145107142D01*
X281695238Y-145011904D01*
X281695238Y-144726190D01*
X281742857Y-144630952D01*
X281790476Y-144583333D01*
X281885714Y-144535714D01*
X282028571Y-144535714D01*
X282123809Y-144583333D01*
X282171428Y-144630952D01*
X282219047Y-144726190D01*
X282219047Y-145011904D01*
X282171428Y-145107142D01*
X282123809Y-145154761D01*
X282028571Y-145202380D01*
X281885714Y-145202380D01*
X282647619Y-144535714D02*
X282647619Y-145202380D01*
X282647619Y-144630952D02*
X282695238Y-144583333D01*
X282790476Y-144535714D01*
X282933333Y-144535714D01*
X283028571Y-144583333D01*
X283076190Y-144678571D01*
X283076190Y-145202380D01*
X283409523Y-144535714D02*
X283790476Y-144535714D01*
X283552380Y-144202380D02*
X283552380Y-145059523D01*
X283600000Y-145154761D01*
X283695238Y-145202380D01*
X283790476Y-145202380D01*
X284123809Y-145202380D02*
X284123809Y-144535714D01*
X284123809Y-144726190D02*
X284171428Y-144630952D01*
X284219047Y-144583333D01*
X284314285Y-144535714D01*
X284409523Y-144535714D01*
X284885714Y-145202380D02*
X284790476Y-145154761D01*
X284742857Y-145107142D01*
X284695238Y-145011904D01*
X284695238Y-144726190D01*
X284742857Y-144630952D01*
X284790476Y-144583333D01*
X284885714Y-144535714D01*
X285028571Y-144535714D01*
X285123809Y-144583333D01*
X285171428Y-144630952D01*
X285219047Y-144726190D01*
X285219047Y-145011904D01*
X285171428Y-145107142D01*
X285123809Y-145154761D01*
X285028571Y-145202380D01*
X284885714Y-145202380D01*
X285790476Y-145202380D02*
X285695238Y-145154761D01*
X285647619Y-145059523D01*
X285647619Y-144202380D01*
X286314285Y-145202380D02*
X286219047Y-145154761D01*
X286171428Y-145059523D01*
X286171428Y-144202380D01*
X287076190Y-145154761D02*
X286980952Y-145202380D01*
X286790476Y-145202380D01*
X286695238Y-145154761D01*
X286647619Y-145059523D01*
X286647619Y-144678571D01*
X286695238Y-144583333D01*
X286790476Y-144535714D01*
X286980952Y-144535714D01*
X287076190Y-144583333D01*
X287123809Y-144678571D01*
X287123809Y-144773809D01*
X286647619Y-144869047D01*
X287552380Y-145202380D02*
X287552380Y-144535714D01*
X287552380Y-144726190D02*
X287600000Y-144630952D01*
X287647619Y-144583333D01*
X287742857Y-144535714D01*
X287838095Y-144535714D01*
X308918571Y-154217380D02*
X308918571Y-155026904D01*
X308966190Y-155122142D01*
X309013809Y-155169761D01*
X309109047Y-155217380D01*
X309299523Y-155217380D01*
X309394761Y-155169761D01*
X309442380Y-155122142D01*
X309490000Y-155026904D01*
X309490000Y-154217380D01*
X310109047Y-155217380D02*
X310013809Y-155169761D01*
X309966190Y-155074523D01*
X309966190Y-154217380D01*
X310347142Y-154550714D02*
X310728095Y-154550714D01*
X310490000Y-154217380D02*
X310490000Y-155074523D01*
X310537619Y-155169761D01*
X310632857Y-155217380D01*
X310728095Y-155217380D01*
X311061428Y-155217380D02*
X311061428Y-154550714D01*
X311061428Y-154741190D02*
X311109047Y-154645952D01*
X311156666Y-154598333D01*
X311251904Y-154550714D01*
X311347142Y-154550714D01*
X312109047Y-155217380D02*
X312109047Y-154693571D01*
X312061428Y-154598333D01*
X311966190Y-154550714D01*
X311775714Y-154550714D01*
X311680476Y-154598333D01*
X312109047Y-155169761D02*
X312013809Y-155217380D01*
X311775714Y-155217380D01*
X311680476Y-155169761D01*
X311632857Y-155074523D01*
X311632857Y-154979285D01*
X311680476Y-154884047D01*
X311775714Y-154836428D01*
X312013809Y-154836428D01*
X312109047Y-154788809D01*
X312537619Y-155169761D02*
X312632857Y-155217380D01*
X312823333Y-155217380D01*
X312918571Y-155169761D01*
X312966190Y-155074523D01*
X312966190Y-155026904D01*
X312918571Y-154931666D01*
X312823333Y-154884047D01*
X312680476Y-154884047D01*
X312585238Y-154836428D01*
X312537619Y-154741190D01*
X312537619Y-154693571D01*
X312585238Y-154598333D01*
X312680476Y-154550714D01*
X312823333Y-154550714D01*
X312918571Y-154598333D01*
X313537619Y-155217380D02*
X313442380Y-155169761D01*
X313394761Y-155122142D01*
X313347142Y-155026904D01*
X313347142Y-154741190D01*
X313394761Y-154645952D01*
X313442380Y-154598333D01*
X313537619Y-154550714D01*
X313680476Y-154550714D01*
X313775714Y-154598333D01*
X313823333Y-154645952D01*
X313870952Y-154741190D01*
X313870952Y-155026904D01*
X313823333Y-155122142D01*
X313775714Y-155169761D01*
X313680476Y-155217380D01*
X313537619Y-155217380D01*
X314299523Y-154550714D02*
X314299523Y-155217380D01*
X314299523Y-154645952D02*
X314347142Y-154598333D01*
X314442380Y-154550714D01*
X314585238Y-154550714D01*
X314680476Y-154598333D01*
X314728095Y-154693571D01*
X314728095Y-155217380D01*
X315204285Y-155217380D02*
X315204285Y-154550714D01*
X315204285Y-154217380D02*
X315156666Y-154265000D01*
X315204285Y-154312619D01*
X315251904Y-154265000D01*
X315204285Y-154217380D01*
X315204285Y-154312619D01*
X316109047Y-155169761D02*
X316013809Y-155217380D01*
X315823333Y-155217380D01*
X315728095Y-155169761D01*
X315680476Y-155122142D01*
X315632857Y-155026904D01*
X315632857Y-154741190D01*
X315680476Y-154645952D01*
X315728095Y-154598333D01*
X315823333Y-154550714D01*
X316013809Y-154550714D01*
X316109047Y-154598333D01*
X307156666Y-156827380D02*
X307156666Y-155827380D01*
X307156666Y-156303571D02*
X307728095Y-156303571D01*
X307728095Y-156827380D02*
X307728095Y-155827380D01*
X308109047Y-156160714D02*
X308347142Y-156827380D01*
X308585238Y-156160714D02*
X308347142Y-156827380D01*
X308251904Y-157065476D01*
X308204285Y-157113095D01*
X308109047Y-157160714D01*
X308966190Y-156160714D02*
X308966190Y-157160714D01*
X308966190Y-156208333D02*
X309061428Y-156160714D01*
X309251904Y-156160714D01*
X309347142Y-156208333D01*
X309394761Y-156255952D01*
X309442380Y-156351190D01*
X309442380Y-156636904D01*
X309394761Y-156732142D01*
X309347142Y-156779761D01*
X309251904Y-156827380D01*
X309061428Y-156827380D01*
X308966190Y-156779761D01*
X310251904Y-156779761D02*
X310156666Y-156827380D01*
X309966190Y-156827380D01*
X309870952Y-156779761D01*
X309823333Y-156684523D01*
X309823333Y-156303571D01*
X309870952Y-156208333D01*
X309966190Y-156160714D01*
X310156666Y-156160714D01*
X310251904Y-156208333D01*
X310299523Y-156303571D01*
X310299523Y-156398809D01*
X309823333Y-156494047D01*
X310728095Y-156827380D02*
X310728095Y-156160714D01*
X310728095Y-156351190D02*
X310775714Y-156255952D01*
X310823333Y-156208333D01*
X310918571Y-156160714D01*
X311013809Y-156160714D01*
X311775714Y-156779761D02*
X311680476Y-156827380D01*
X311490000Y-156827380D01*
X311394761Y-156779761D01*
X311347142Y-156732142D01*
X311299523Y-156636904D01*
X311299523Y-156351190D01*
X311347142Y-156255952D01*
X311394761Y-156208333D01*
X311490000Y-156160714D01*
X311680476Y-156160714D01*
X311775714Y-156208333D01*
X312347142Y-156827380D02*
X312251904Y-156779761D01*
X312204285Y-156732142D01*
X312156666Y-156636904D01*
X312156666Y-156351190D01*
X312204285Y-156255952D01*
X312251904Y-156208333D01*
X312347142Y-156160714D01*
X312490000Y-156160714D01*
X312585238Y-156208333D01*
X312632857Y-156255952D01*
X312680476Y-156351190D01*
X312680476Y-156636904D01*
X312632857Y-156732142D01*
X312585238Y-156779761D01*
X312490000Y-156827380D01*
X312347142Y-156827380D01*
X313109047Y-156160714D02*
X313109047Y-156827380D01*
X313109047Y-156255952D02*
X313156666Y-156208333D01*
X313251904Y-156160714D01*
X313394761Y-156160714D01*
X313490000Y-156208333D01*
X313537619Y-156303571D01*
X313537619Y-156827380D01*
X313918571Y-156160714D02*
X314156666Y-156827380D01*
X314394761Y-156160714D01*
X315156666Y-156779761D02*
X315061428Y-156827380D01*
X314870952Y-156827380D01*
X314775714Y-156779761D01*
X314728095Y-156684523D01*
X314728095Y-156303571D01*
X314775714Y-156208333D01*
X314870952Y-156160714D01*
X315061428Y-156160714D01*
X315156666Y-156208333D01*
X315204285Y-156303571D01*
X315204285Y-156398809D01*
X314728095Y-156494047D01*
X315632857Y-156827380D02*
X315632857Y-156160714D01*
X315632857Y-156351190D02*
X315680476Y-156255952D01*
X315728095Y-156208333D01*
X315823333Y-156160714D01*
X315918571Y-156160714D01*
X316109047Y-156160714D02*
X316490000Y-156160714D01*
X316251904Y-155827380D02*
X316251904Y-156684523D01*
X316299523Y-156779761D01*
X316394761Y-156827380D01*
X316490000Y-156827380D01*
X317204285Y-156779761D02*
X317109047Y-156827380D01*
X316918571Y-156827380D01*
X316823333Y-156779761D01*
X316775714Y-156684523D01*
X316775714Y-156303571D01*
X316823333Y-156208333D01*
X316918571Y-156160714D01*
X317109047Y-156160714D01*
X317204285Y-156208333D01*
X317251904Y-156303571D01*
X317251904Y-156398809D01*
X316775714Y-156494047D01*
X317680476Y-156827380D02*
X317680476Y-156160714D01*
X317680476Y-156351190D02*
X317728095Y-156255952D01*
X317775714Y-156208333D01*
X317870952Y-156160714D01*
X317966190Y-156160714D01*
X263864761Y-162330714D02*
X263102857Y-162616428D01*
X263864761Y-162902142D01*
X264340952Y-162616428D02*
X265102857Y-162616428D01*
X266340952Y-161997380D02*
X266340952Y-162806904D01*
X266388571Y-162902142D01*
X266436190Y-162949761D01*
X266531428Y-162997380D01*
X266721904Y-162997380D01*
X266817142Y-162949761D01*
X266864761Y-162902142D01*
X266912380Y-162806904D01*
X266912380Y-161997380D01*
X267388571Y-162997380D02*
X267388571Y-161997380D01*
X267960000Y-162997380D01*
X267960000Y-161997380D01*
X268912380Y-162997380D02*
X268436190Y-162997380D01*
X268436190Y-161997380D01*
X269245714Y-162997380D02*
X269245714Y-161997380D01*
X269721904Y-162997380D02*
X269721904Y-161997380D01*
X270055238Y-162711666D01*
X270388571Y-161997380D01*
X270388571Y-162997380D01*
X270864761Y-162997380D02*
X270864761Y-161997380D01*
X271198095Y-161997380D02*
X271769523Y-161997380D01*
X271483809Y-162997380D02*
X271483809Y-161997380D01*
X272102857Y-162473571D02*
X272436190Y-162473571D01*
X272579047Y-162997380D02*
X272102857Y-162997380D01*
X272102857Y-161997380D01*
X272579047Y-161997380D01*
X273007619Y-162997380D02*
X273007619Y-161997380D01*
X273245714Y-161997380D01*
X273388571Y-162045000D01*
X273483809Y-162140238D01*
X273531428Y-162235476D01*
X273579047Y-162425952D01*
X273579047Y-162568809D01*
X273531428Y-162759285D01*
X273483809Y-162854523D01*
X273388571Y-162949761D01*
X273245714Y-162997380D01*
X273007619Y-162997380D01*
X274769523Y-162997380D02*
X274769523Y-161997380D01*
X275150476Y-161997380D01*
X275245714Y-162045000D01*
X275293333Y-162092619D01*
X275340952Y-162187857D01*
X275340952Y-162330714D01*
X275293333Y-162425952D01*
X275245714Y-162473571D01*
X275150476Y-162521190D01*
X274769523Y-162521190D01*
X275960000Y-161997380D02*
X276150476Y-161997380D01*
X276245714Y-162045000D01*
X276340952Y-162140238D01*
X276388571Y-162330714D01*
X276388571Y-162664047D01*
X276340952Y-162854523D01*
X276245714Y-162949761D01*
X276150476Y-162997380D01*
X275960000Y-162997380D01*
X275864761Y-162949761D01*
X275769523Y-162854523D01*
X275721904Y-162664047D01*
X275721904Y-162330714D01*
X275769523Y-162140238D01*
X275864761Y-162045000D01*
X275960000Y-161997380D01*
X276721904Y-161997380D02*
X276960000Y-162997380D01*
X277150476Y-162283095D01*
X277340952Y-162997380D01*
X277579047Y-161997380D01*
X277960000Y-162473571D02*
X278293333Y-162473571D01*
X278436190Y-162997380D02*
X277960000Y-162997380D01*
X277960000Y-161997380D01*
X278436190Y-161997380D01*
X279436190Y-162997380D02*
X279102857Y-162521190D01*
X278864761Y-162997380D02*
X278864761Y-161997380D01*
X279245714Y-161997380D01*
X279340952Y-162045000D01*
X279388571Y-162092619D01*
X279436190Y-162187857D01*
X279436190Y-162330714D01*
X279388571Y-162425952D01*
X279340952Y-162473571D01*
X279245714Y-162521190D01*
X278864761Y-162521190D01*
X279864761Y-162902142D02*
X279912380Y-162949761D01*
X279864761Y-162997380D01*
X279817142Y-162949761D01*
X279864761Y-162902142D01*
X279864761Y-162997380D01*
X279864761Y-162616428D02*
X279817142Y-162045000D01*
X279864761Y-161997380D01*
X279912380Y-162045000D01*
X279864761Y-162616428D01*
X279864761Y-161997380D01*
X280340952Y-162902142D02*
X280388571Y-162949761D01*
X280340952Y-162997380D01*
X280293333Y-162949761D01*
X280340952Y-162902142D01*
X280340952Y-162997380D01*
X280340952Y-162616428D02*
X280293333Y-162045000D01*
X280340952Y-161997380D01*
X280388571Y-162045000D01*
X280340952Y-162616428D01*
X280340952Y-161997380D01*
X280817142Y-162902142D02*
X280864761Y-162949761D01*
X280817142Y-162997380D01*
X280769523Y-162949761D01*
X280817142Y-162902142D01*
X280817142Y-162997380D01*
X280817142Y-162616428D02*
X280769523Y-162045000D01*
X280817142Y-161997380D01*
X280864761Y-162045000D01*
X280817142Y-162616428D01*
X280817142Y-161997380D01*
X265602857Y-164988333D02*
X265555238Y-164940714D01*
X265460000Y-164797857D01*
X265412380Y-164702619D01*
X265364761Y-164559761D01*
X265317142Y-164321666D01*
X265317142Y-164131190D01*
X265364761Y-163893095D01*
X265412380Y-163750238D01*
X265460000Y-163655000D01*
X265555238Y-163512142D01*
X265602857Y-163464523D01*
X266650476Y-164702619D02*
X266555238Y-164655000D01*
X266460000Y-164559761D01*
X266317142Y-164416904D01*
X266221904Y-164369285D01*
X266126666Y-164369285D01*
X266174285Y-164607380D02*
X266079047Y-164559761D01*
X265983809Y-164464523D01*
X265936190Y-164274047D01*
X265936190Y-163940714D01*
X265983809Y-163750238D01*
X266079047Y-163655000D01*
X266174285Y-163607380D01*
X266364761Y-163607380D01*
X266460000Y-163655000D01*
X266555238Y-163750238D01*
X266602857Y-163940714D01*
X266602857Y-164274047D01*
X266555238Y-164464523D01*
X266460000Y-164559761D01*
X266364761Y-164607380D01*
X266174285Y-164607380D01*
X266936190Y-163607380D02*
X267174285Y-164607380D01*
X267364761Y-163893095D01*
X267555238Y-164607380D01*
X267793333Y-163607380D01*
X268174285Y-164607380D02*
X268174285Y-163607380D01*
X268650476Y-164607380D02*
X268650476Y-163607380D01*
X269698095Y-164512142D02*
X269650476Y-164559761D01*
X269507619Y-164607380D01*
X269412380Y-164607380D01*
X269269523Y-164559761D01*
X269174285Y-164464523D01*
X269126666Y-164369285D01*
X269079047Y-164178809D01*
X269079047Y-164035952D01*
X269126666Y-163845476D01*
X269174285Y-163750238D01*
X269269523Y-163655000D01*
X269412380Y-163607380D01*
X269507619Y-163607380D01*
X269650476Y-163655000D01*
X269698095Y-163702619D01*
X271460000Y-164512142D02*
X271412380Y-164559761D01*
X271269523Y-164607380D01*
X271174285Y-164607380D01*
X271031428Y-164559761D01*
X270936190Y-164464523D01*
X270888571Y-164369285D01*
X270840952Y-164178809D01*
X270840952Y-164035952D01*
X270888571Y-163845476D01*
X270936190Y-163750238D01*
X271031428Y-163655000D01*
X271174285Y-163607380D01*
X271269523Y-163607380D01*
X271412380Y-163655000D01*
X271460000Y-163702619D01*
X272031428Y-164607380D02*
X271936190Y-164559761D01*
X271888571Y-164512142D01*
X271840952Y-164416904D01*
X271840952Y-164131190D01*
X271888571Y-164035952D01*
X271936190Y-163988333D01*
X272031428Y-163940714D01*
X272174285Y-163940714D01*
X272269523Y-163988333D01*
X272317142Y-164035952D01*
X272364761Y-164131190D01*
X272364761Y-164416904D01*
X272317142Y-164512142D01*
X272269523Y-164559761D01*
X272174285Y-164607380D01*
X272031428Y-164607380D01*
X272793333Y-163940714D02*
X272793333Y-164607380D01*
X272793333Y-164035952D02*
X272840952Y-163988333D01*
X272936190Y-163940714D01*
X273079047Y-163940714D01*
X273174285Y-163988333D01*
X273221904Y-164083571D01*
X273221904Y-164607380D01*
X273698095Y-163940714D02*
X273698095Y-164607380D01*
X273698095Y-164035952D02*
X273745714Y-163988333D01*
X273840952Y-163940714D01*
X273983809Y-163940714D01*
X274079047Y-163988333D01*
X274126666Y-164083571D01*
X274126666Y-164607380D01*
X274983809Y-164559761D02*
X274888571Y-164607380D01*
X274698095Y-164607380D01*
X274602857Y-164559761D01*
X274555238Y-164464523D01*
X274555238Y-164083571D01*
X274602857Y-163988333D01*
X274698095Y-163940714D01*
X274888571Y-163940714D01*
X274983809Y-163988333D01*
X275031428Y-164083571D01*
X275031428Y-164178809D01*
X274555238Y-164274047D01*
X275888571Y-164559761D02*
X275793333Y-164607380D01*
X275602857Y-164607380D01*
X275507619Y-164559761D01*
X275460000Y-164512142D01*
X275412380Y-164416904D01*
X275412380Y-164131190D01*
X275460000Y-164035952D01*
X275507619Y-163988333D01*
X275602857Y-163940714D01*
X275793333Y-163940714D01*
X275888571Y-163988333D01*
X276174285Y-163940714D02*
X276555238Y-163940714D01*
X276317142Y-163607380D02*
X276317142Y-164464523D01*
X276364761Y-164559761D01*
X276460000Y-164607380D01*
X276555238Y-164607380D01*
X277031428Y-164607380D02*
X276936190Y-164559761D01*
X276888571Y-164512142D01*
X276840952Y-164416904D01*
X276840952Y-164131190D01*
X276888571Y-164035952D01*
X276936190Y-163988333D01*
X277031428Y-163940714D01*
X277174285Y-163940714D01*
X277269523Y-163988333D01*
X277317142Y-164035952D01*
X277364761Y-164131190D01*
X277364761Y-164416904D01*
X277317142Y-164512142D01*
X277269523Y-164559761D01*
X277174285Y-164607380D01*
X277031428Y-164607380D01*
X277793333Y-164607380D02*
X277793333Y-163940714D01*
X277793333Y-164131190D02*
X277840952Y-164035952D01*
X277888571Y-163988333D01*
X277983809Y-163940714D01*
X278079047Y-163940714D01*
X278317142Y-164988333D02*
X278364761Y-164940714D01*
X278460000Y-164797857D01*
X278507619Y-164702619D01*
X278555238Y-164559761D01*
X278602857Y-164321666D01*
X278602857Y-164131190D01*
X278555238Y-163893095D01*
X278507619Y-163750238D01*
X278460000Y-163655000D01*
X278364761Y-163512142D01*
X278317142Y-163464523D01*
X268560000Y-218896666D02*
X269036190Y-218896666D01*
X268464761Y-219182380D02*
X268798095Y-218182380D01*
X269131428Y-219182380D01*
X269464761Y-218515714D02*
X269464761Y-219182380D01*
X269464761Y-218610952D02*
X269512380Y-218563333D01*
X269607619Y-218515714D01*
X269750476Y-218515714D01*
X269845714Y-218563333D01*
X269893333Y-218658571D01*
X269893333Y-219182380D01*
X270798095Y-219182380D02*
X270798095Y-218658571D01*
X270750476Y-218563333D01*
X270655238Y-218515714D01*
X270464761Y-218515714D01*
X270369523Y-218563333D01*
X270798095Y-219134761D02*
X270702857Y-219182380D01*
X270464761Y-219182380D01*
X270369523Y-219134761D01*
X270321904Y-219039523D01*
X270321904Y-218944285D01*
X270369523Y-218849047D01*
X270464761Y-218801428D01*
X270702857Y-218801428D01*
X270798095Y-218753809D01*
X271274285Y-219182380D02*
X271274285Y-218515714D01*
X271274285Y-218706190D02*
X271321904Y-218610952D01*
X271369523Y-218563333D01*
X271464761Y-218515714D01*
X271560000Y-218515714D01*
X272321904Y-219134761D02*
X272226666Y-219182380D01*
X272036190Y-219182380D01*
X271940952Y-219134761D01*
X271893333Y-219087142D01*
X271845714Y-218991904D01*
X271845714Y-218706190D01*
X271893333Y-218610952D01*
X271940952Y-218563333D01*
X272036190Y-218515714D01*
X272226666Y-218515714D01*
X272321904Y-218563333D01*
X272750476Y-219182380D02*
X272750476Y-218182380D01*
X273179047Y-219182380D02*
X273179047Y-218658571D01*
X273131428Y-218563333D01*
X273036190Y-218515714D01*
X272893333Y-218515714D01*
X272798095Y-218563333D01*
X272750476Y-218610952D01*
X273655238Y-219182380D02*
X273655238Y-218515714D01*
X273655238Y-218182380D02*
X273607619Y-218230000D01*
X273655238Y-218277619D01*
X273702857Y-218230000D01*
X273655238Y-218182380D01*
X273655238Y-218277619D01*
X274560000Y-219134761D02*
X274464761Y-219182380D01*
X274274285Y-219182380D01*
X274179047Y-219134761D01*
X274131428Y-219087142D01*
X274083809Y-218991904D01*
X274083809Y-218706190D01*
X274131428Y-218610952D01*
X274179047Y-218563333D01*
X274274285Y-218515714D01*
X274464761Y-218515714D01*
X274560000Y-218563333D01*
X269107619Y-220792380D02*
X269107619Y-219792380D01*
X269440952Y-220506666D01*
X269774285Y-219792380D01*
X269774285Y-220792380D01*
X270393333Y-220792380D02*
X270298095Y-220744761D01*
X270250476Y-220697142D01*
X270202857Y-220601904D01*
X270202857Y-220316190D01*
X270250476Y-220220952D01*
X270298095Y-220173333D01*
X270393333Y-220125714D01*
X270536190Y-220125714D01*
X270631428Y-220173333D01*
X270679047Y-220220952D01*
X270726666Y-220316190D01*
X270726666Y-220601904D01*
X270679047Y-220697142D01*
X270631428Y-220744761D01*
X270536190Y-220792380D01*
X270393333Y-220792380D01*
X271155238Y-220125714D02*
X271155238Y-220792380D01*
X271155238Y-220220952D02*
X271202857Y-220173333D01*
X271298095Y-220125714D01*
X271440952Y-220125714D01*
X271536190Y-220173333D01*
X271583809Y-220268571D01*
X271583809Y-220792380D01*
X272060000Y-220792380D02*
X272060000Y-219792380D01*
X272155238Y-220411428D02*
X272440952Y-220792380D01*
X272440952Y-220125714D02*
X272060000Y-220506666D01*
X273250476Y-220744761D02*
X273155238Y-220792380D01*
X272964761Y-220792380D01*
X272869523Y-220744761D01*
X272821904Y-220649523D01*
X272821904Y-220268571D01*
X272869523Y-220173333D01*
X272964761Y-220125714D01*
X273155238Y-220125714D01*
X273250476Y-220173333D01*
X273298095Y-220268571D01*
X273298095Y-220363809D01*
X272821904Y-220459047D01*
X273631428Y-220125714D02*
X273869523Y-220792380D01*
X274107619Y-220125714D02*
X273869523Y-220792380D01*
X273774285Y-221030476D01*
X273726666Y-221078095D01*
X273631428Y-221125714D01*
X271512380Y-221402380D02*
X271607619Y-221402380D01*
X271702857Y-221450000D01*
X271750476Y-221497619D01*
X271798095Y-221592857D01*
X271845714Y-221783333D01*
X271845714Y-222021428D01*
X271798095Y-222211904D01*
X271750476Y-222307142D01*
X271702857Y-222354761D01*
X271607619Y-222402380D01*
X271512380Y-222402380D01*
X271417142Y-222354761D01*
X271369523Y-222307142D01*
X271321904Y-222211904D01*
X271274285Y-222021428D01*
X271274285Y-221783333D01*
X271321904Y-221592857D01*
X271369523Y-221497619D01*
X271417142Y-221450000D01*
X271512380Y-221402380D01*
D11*
%TO.C,AM0:7*%
X263237500Y-185060416D02*
X263713690Y-185060416D01*
X263142261Y-185346130D02*
X263475595Y-184346130D01*
X263808928Y-185346130D01*
X264142261Y-185346130D02*
X264142261Y-184346130D01*
X264475595Y-185060416D01*
X264808928Y-184346130D01*
X264808928Y-185346130D01*
X265475595Y-184346130D02*
X265570833Y-184346130D01*
X265666071Y-184393750D01*
X265713690Y-184441369D01*
X265761309Y-184536607D01*
X265808928Y-184727083D01*
X265808928Y-184965178D01*
X265761309Y-185155654D01*
X265713690Y-185250892D01*
X265666071Y-185298511D01*
X265570833Y-185346130D01*
X265475595Y-185346130D01*
X265380357Y-185298511D01*
X265332738Y-185250892D01*
X265285119Y-185155654D01*
X265237500Y-184965178D01*
X265237500Y-184727083D01*
X265285119Y-184536607D01*
X265332738Y-184441369D01*
X265380357Y-184393750D01*
X265475595Y-184346130D01*
X266237500Y-185250892D02*
X266285119Y-185298511D01*
X266237500Y-185346130D01*
X266189880Y-185298511D01*
X266237500Y-185250892D01*
X266237500Y-185346130D01*
X266237500Y-184727083D02*
X266285119Y-184774702D01*
X266237500Y-184822321D01*
X266189880Y-184774702D01*
X266237500Y-184727083D01*
X266237500Y-184822321D01*
X266618452Y-184346130D02*
X267285119Y-184346130D01*
X266856547Y-185346130D01*
D12*
X254556547Y-173898511D02*
X254556547Y-171898511D01*
X255699404Y-173898511D01*
X255699404Y-171898511D01*
X256651785Y-171898511D02*
X256651785Y-173517559D01*
X256747023Y-173708035D01*
X256842261Y-173803273D01*
X257032738Y-173898511D01*
X257413690Y-173898511D01*
X257604166Y-173803273D01*
X257699404Y-173708035D01*
X257794642Y-173517559D01*
X257794642Y-171898511D01*
X258747023Y-173898511D02*
X258747023Y-171898511D01*
X259413690Y-173327083D01*
X260080357Y-171898511D01*
X260080357Y-173898511D01*
X263508928Y-173898511D02*
X262556547Y-173898511D01*
X262556547Y-171898511D01*
X264556547Y-171898511D02*
X264937500Y-171898511D01*
X265127976Y-171993750D01*
X265318452Y-172184226D01*
X265413690Y-172565178D01*
X265413690Y-173231845D01*
X265318452Y-173612797D01*
X265127976Y-173803273D01*
X264937500Y-173898511D01*
X264556547Y-173898511D01*
X264366071Y-173803273D01*
X264175595Y-173612797D01*
X264080357Y-173231845D01*
X264080357Y-172565178D01*
X264175595Y-172184226D01*
X264366071Y-171993750D01*
X264556547Y-171898511D01*
X267413690Y-173708035D02*
X267318452Y-173803273D01*
X267032738Y-173898511D01*
X266842261Y-173898511D01*
X266556547Y-173803273D01*
X266366071Y-173612797D01*
X266270833Y-173422321D01*
X266175595Y-173041369D01*
X266175595Y-172755654D01*
X266270833Y-172374702D01*
X266366071Y-172184226D01*
X266556547Y-171993750D01*
X266842261Y-171898511D01*
X267032738Y-171898511D01*
X267318452Y-171993750D01*
X267413690Y-172088988D01*
X268270833Y-173898511D02*
X268270833Y-171898511D01*
X269413690Y-173898511D02*
X268556547Y-172755654D01*
X269413690Y-171898511D02*
X268270833Y-173041369D01*
D10*
%TO.C,U9*%
X285013169Y-221801491D02*
X285585589Y-222373911D01*
X285686604Y-222407583D01*
X285753948Y-222407583D01*
X285854963Y-222373911D01*
X285989650Y-222239224D01*
X286023322Y-222138209D01*
X286023322Y-222070865D01*
X285989650Y-221969850D01*
X285417230Y-221397430D01*
X286494726Y-221734148D02*
X286629413Y-221599461D01*
X286663085Y-221498446D01*
X286663085Y-221431102D01*
X286629413Y-221262743D01*
X286528398Y-221094385D01*
X286259024Y-220825011D01*
X286158009Y-220791339D01*
X286090665Y-220791339D01*
X285989650Y-220825011D01*
X285854963Y-220959698D01*
X285821291Y-221060713D01*
X285821291Y-221128056D01*
X285854963Y-221229072D01*
X286023322Y-221397430D01*
X286124337Y-221431102D01*
X286191681Y-221431102D01*
X286292696Y-221397430D01*
X286427383Y-221262743D01*
X286461055Y-221161728D01*
X286461055Y-221094385D01*
X286427383Y-220993369D01*
%TO.C,U17*%
X300332340Y-180644097D02*
X300904760Y-181216517D01*
X301005775Y-181250188D01*
X301073118Y-181250188D01*
X301174134Y-181216517D01*
X301308821Y-181081830D01*
X301342492Y-180980814D01*
X301342492Y-180913471D01*
X301308821Y-180812456D01*
X300736401Y-180240036D01*
X302150614Y-180240036D02*
X301746553Y-180644097D01*
X301948584Y-180442066D02*
X301241477Y-179734960D01*
X301275149Y-179903318D01*
X301275149Y-180038005D01*
X301241477Y-180139021D01*
X301679210Y-179297227D02*
X302150614Y-178825822D01*
X302554675Y-179835975D01*
%TO.C,U14*%
X262232340Y-199694097D02*
X262804760Y-200266517D01*
X262905775Y-200300188D01*
X262973118Y-200300188D01*
X263074134Y-200266517D01*
X263208821Y-200131830D01*
X263242492Y-200030814D01*
X263242492Y-199963471D01*
X263208821Y-199862456D01*
X262636401Y-199290036D01*
X264050614Y-199290036D02*
X263646553Y-199694097D01*
X263848584Y-199492066D02*
X263141477Y-198784960D01*
X263175149Y-198953318D01*
X263175149Y-199088005D01*
X263141477Y-199189021D01*
X264185301Y-198212540D02*
X264656706Y-198683944D01*
X263747569Y-198111525D02*
X264084286Y-198784960D01*
X264522019Y-198347227D01*
D11*
%TO.C,AM1:1*%
X301337500Y-242210416D02*
X301813690Y-242210416D01*
X301242261Y-242496130D02*
X301575595Y-241496130D01*
X301908928Y-242496130D01*
X302242261Y-242496130D02*
X302242261Y-241496130D01*
X302575595Y-242210416D01*
X302908928Y-241496130D01*
X302908928Y-242496130D01*
X303908928Y-242496130D02*
X303337500Y-242496130D01*
X303623214Y-242496130D02*
X303623214Y-241496130D01*
X303527976Y-241638988D01*
X303432738Y-241734226D01*
X303337500Y-241781845D01*
X304337500Y-242400892D02*
X304385119Y-242448511D01*
X304337500Y-242496130D01*
X304289880Y-242448511D01*
X304337500Y-242400892D01*
X304337500Y-242496130D01*
X304337500Y-241877083D02*
X304385119Y-241924702D01*
X304337500Y-241972321D01*
X304289880Y-241924702D01*
X304337500Y-241877083D01*
X304337500Y-241972321D01*
X305337500Y-242496130D02*
X304766071Y-242496130D01*
X305051785Y-242496130D02*
X305051785Y-241496130D01*
X304956547Y-241638988D01*
X304861309Y-241734226D01*
X304766071Y-241781845D01*
D12*
X296323214Y-231048511D02*
X296323214Y-229048511D01*
X297466071Y-231048511D01*
X297466071Y-229048511D01*
X298418452Y-229048511D02*
X298418452Y-230667559D01*
X298513690Y-230858035D01*
X298608928Y-230953273D01*
X298799404Y-231048511D01*
X299180357Y-231048511D01*
X299370833Y-230953273D01*
X299466071Y-230858035D01*
X299561309Y-230667559D01*
X299561309Y-229048511D01*
X300513690Y-231048511D02*
X300513690Y-229048511D01*
X301180357Y-230477083D01*
X301847023Y-229048511D01*
X301847023Y-231048511D01*
X302608928Y-229048511D02*
X303847023Y-229048511D01*
X303180357Y-229810416D01*
X303466071Y-229810416D01*
X303656547Y-229905654D01*
X303751785Y-230000892D01*
X303847023Y-230191369D01*
X303847023Y-230667559D01*
X303751785Y-230858035D01*
X303656547Y-230953273D01*
X303466071Y-231048511D01*
X302894642Y-231048511D01*
X302704166Y-230953273D01*
X302608928Y-230858035D01*
D11*
%TO.C,AM0:0*%
X272762500Y-261260416D02*
X273238690Y-261260416D01*
X272667261Y-261546130D02*
X273000595Y-260546130D01*
X273333928Y-261546130D01*
X273667261Y-261546130D02*
X273667261Y-260546130D01*
X274000595Y-261260416D01*
X274333928Y-260546130D01*
X274333928Y-261546130D01*
X275000595Y-260546130D02*
X275095833Y-260546130D01*
X275191071Y-260593750D01*
X275238690Y-260641369D01*
X275286309Y-260736607D01*
X275333928Y-260927083D01*
X275333928Y-261165178D01*
X275286309Y-261355654D01*
X275238690Y-261450892D01*
X275191071Y-261498511D01*
X275095833Y-261546130D01*
X275000595Y-261546130D01*
X274905357Y-261498511D01*
X274857738Y-261450892D01*
X274810119Y-261355654D01*
X274762500Y-261165178D01*
X274762500Y-260927083D01*
X274810119Y-260736607D01*
X274857738Y-260641369D01*
X274905357Y-260593750D01*
X275000595Y-260546130D01*
X275762500Y-261450892D02*
X275810119Y-261498511D01*
X275762500Y-261546130D01*
X275714880Y-261498511D01*
X275762500Y-261450892D01*
X275762500Y-261546130D01*
X275762500Y-260927083D02*
X275810119Y-260974702D01*
X275762500Y-261022321D01*
X275714880Y-260974702D01*
X275762500Y-260927083D01*
X275762500Y-261022321D01*
X276429166Y-260546130D02*
X276524404Y-260546130D01*
X276619642Y-260593750D01*
X276667261Y-260641369D01*
X276714880Y-260736607D01*
X276762500Y-260927083D01*
X276762500Y-261165178D01*
X276714880Y-261355654D01*
X276667261Y-261450892D01*
X276619642Y-261498511D01*
X276524404Y-261546130D01*
X276429166Y-261546130D01*
X276333928Y-261498511D01*
X276286309Y-261450892D01*
X276238690Y-261355654D01*
X276191071Y-261165178D01*
X276191071Y-260927083D01*
X276238690Y-260736607D01*
X276286309Y-260641369D01*
X276333928Y-260593750D01*
X276429166Y-260546130D01*
D12*
X267748214Y-250098511D02*
X267748214Y-248098511D01*
X268891071Y-250098511D01*
X268891071Y-248098511D01*
X269843452Y-248098511D02*
X269843452Y-249717559D01*
X269938690Y-249908035D01*
X270033928Y-250003273D01*
X270224404Y-250098511D01*
X270605357Y-250098511D01*
X270795833Y-250003273D01*
X270891071Y-249908035D01*
X270986309Y-249717559D01*
X270986309Y-248098511D01*
X271938690Y-250098511D02*
X271938690Y-248098511D01*
X272605357Y-249527083D01*
X273272023Y-248098511D01*
X273272023Y-250098511D01*
X274605357Y-248098511D02*
X274795833Y-248098511D01*
X274986309Y-248193750D01*
X275081547Y-248288988D01*
X275176785Y-248479464D01*
X275272023Y-248860416D01*
X275272023Y-249336607D01*
X275176785Y-249717559D01*
X275081547Y-249908035D01*
X274986309Y-250003273D01*
X274795833Y-250098511D01*
X274605357Y-250098511D01*
X274414880Y-250003273D01*
X274319642Y-249908035D01*
X274224404Y-249717559D01*
X274129166Y-249336607D01*
X274129166Y-248860416D01*
X274224404Y-248479464D01*
X274319642Y-248288988D01*
X274414880Y-248193750D01*
X274605357Y-248098511D01*
D11*
%TO.C,AM1:8*%
X320387500Y-185060416D02*
X320863690Y-185060416D01*
X320292261Y-185346130D02*
X320625595Y-184346130D01*
X320958928Y-185346130D01*
X321292261Y-185346130D02*
X321292261Y-184346130D01*
X321625595Y-185060416D01*
X321958928Y-184346130D01*
X321958928Y-185346130D01*
X322958928Y-185346130D02*
X322387500Y-185346130D01*
X322673214Y-185346130D02*
X322673214Y-184346130D01*
X322577976Y-184488988D01*
X322482738Y-184584226D01*
X322387500Y-184631845D01*
X323387500Y-185250892D02*
X323435119Y-185298511D01*
X323387500Y-185346130D01*
X323339880Y-185298511D01*
X323387500Y-185250892D01*
X323387500Y-185346130D01*
X323387500Y-184727083D02*
X323435119Y-184774702D01*
X323387500Y-184822321D01*
X323339880Y-184774702D01*
X323387500Y-184727083D01*
X323387500Y-184822321D01*
X324006547Y-184774702D02*
X323911309Y-184727083D01*
X323863690Y-184679464D01*
X323816071Y-184584226D01*
X323816071Y-184536607D01*
X323863690Y-184441369D01*
X323911309Y-184393750D01*
X324006547Y-184346130D01*
X324197023Y-184346130D01*
X324292261Y-184393750D01*
X324339880Y-184441369D01*
X324387500Y-184536607D01*
X324387500Y-184584226D01*
X324339880Y-184679464D01*
X324292261Y-184727083D01*
X324197023Y-184774702D01*
X324006547Y-184774702D01*
X323911309Y-184822321D01*
X323863690Y-184869940D01*
X323816071Y-184965178D01*
X323816071Y-185155654D01*
X323863690Y-185250892D01*
X323911309Y-185298511D01*
X324006547Y-185346130D01*
X324197023Y-185346130D01*
X324292261Y-185298511D01*
X324339880Y-185250892D01*
X324387500Y-185155654D01*
X324387500Y-184965178D01*
X324339880Y-184869940D01*
X324292261Y-184822321D01*
X324197023Y-184774702D01*
D12*
X315087500Y-173898511D02*
X315087500Y-171898511D01*
X316230357Y-173898511D01*
X316230357Y-171898511D01*
X317182738Y-171898511D02*
X317182738Y-173517559D01*
X317277976Y-173708035D01*
X317373214Y-173803273D01*
X317563690Y-173898511D01*
X317944642Y-173898511D01*
X318135119Y-173803273D01*
X318230357Y-173708035D01*
X318325595Y-173517559D01*
X318325595Y-171898511D01*
X319277976Y-173898511D02*
X319277976Y-171898511D01*
X319944642Y-173327083D01*
X320611309Y-171898511D01*
X320611309Y-173898511D01*
X321563690Y-173136607D02*
X323087500Y-173136607D01*
D11*
%TO.C,AM0:1*%
X263237500Y-242210416D02*
X263713690Y-242210416D01*
X263142261Y-242496130D02*
X263475595Y-241496130D01*
X263808928Y-242496130D01*
X264142261Y-242496130D02*
X264142261Y-241496130D01*
X264475595Y-242210416D01*
X264808928Y-241496130D01*
X264808928Y-242496130D01*
X265475595Y-241496130D02*
X265570833Y-241496130D01*
X265666071Y-241543750D01*
X265713690Y-241591369D01*
X265761309Y-241686607D01*
X265808928Y-241877083D01*
X265808928Y-242115178D01*
X265761309Y-242305654D01*
X265713690Y-242400892D01*
X265666071Y-242448511D01*
X265570833Y-242496130D01*
X265475595Y-242496130D01*
X265380357Y-242448511D01*
X265332738Y-242400892D01*
X265285119Y-242305654D01*
X265237500Y-242115178D01*
X265237500Y-241877083D01*
X265285119Y-241686607D01*
X265332738Y-241591369D01*
X265380357Y-241543750D01*
X265475595Y-241496130D01*
X266237500Y-242400892D02*
X266285119Y-242448511D01*
X266237500Y-242496130D01*
X266189880Y-242448511D01*
X266237500Y-242400892D01*
X266237500Y-242496130D01*
X266237500Y-241877083D02*
X266285119Y-241924702D01*
X266237500Y-241972321D01*
X266189880Y-241924702D01*
X266237500Y-241877083D01*
X266237500Y-241972321D01*
X267237500Y-242496130D02*
X266666071Y-242496130D01*
X266951785Y-242496130D02*
X266951785Y-241496130D01*
X266856547Y-241638988D01*
X266761309Y-241734226D01*
X266666071Y-241781845D01*
D12*
X258223214Y-231048511D02*
X258223214Y-229048511D01*
X259366071Y-231048511D01*
X259366071Y-229048511D01*
X260318452Y-229048511D02*
X260318452Y-230667559D01*
X260413690Y-230858035D01*
X260508928Y-230953273D01*
X260699404Y-231048511D01*
X261080357Y-231048511D01*
X261270833Y-230953273D01*
X261366071Y-230858035D01*
X261461309Y-230667559D01*
X261461309Y-229048511D01*
X262413690Y-231048511D02*
X262413690Y-229048511D01*
X263080357Y-230477083D01*
X263747023Y-229048511D01*
X263747023Y-231048511D01*
X265747023Y-231048511D02*
X264604166Y-231048511D01*
X265175595Y-231048511D02*
X265175595Y-229048511D01*
X264985119Y-229334226D01*
X264794642Y-229524702D01*
X264604166Y-229619940D01*
D11*
%TO.C,AM1:2*%
X301337500Y-223160416D02*
X301813690Y-223160416D01*
X301242261Y-223446130D02*
X301575595Y-222446130D01*
X301908928Y-223446130D01*
X302242261Y-223446130D02*
X302242261Y-222446130D01*
X302575595Y-223160416D01*
X302908928Y-222446130D01*
X302908928Y-223446130D01*
X303908928Y-223446130D02*
X303337500Y-223446130D01*
X303623214Y-223446130D02*
X303623214Y-222446130D01*
X303527976Y-222588988D01*
X303432738Y-222684226D01*
X303337500Y-222731845D01*
X304337500Y-223350892D02*
X304385119Y-223398511D01*
X304337500Y-223446130D01*
X304289880Y-223398511D01*
X304337500Y-223350892D01*
X304337500Y-223446130D01*
X304337500Y-222827083D02*
X304385119Y-222874702D01*
X304337500Y-222922321D01*
X304289880Y-222874702D01*
X304337500Y-222827083D01*
X304337500Y-222922321D01*
X304766071Y-222541369D02*
X304813690Y-222493750D01*
X304908928Y-222446130D01*
X305147023Y-222446130D01*
X305242261Y-222493750D01*
X305289880Y-222541369D01*
X305337500Y-222636607D01*
X305337500Y-222731845D01*
X305289880Y-222874702D01*
X304718452Y-223446130D01*
X305337500Y-223446130D01*
D12*
X296323214Y-211998511D02*
X296323214Y-209998511D01*
X297466071Y-211998511D01*
X297466071Y-209998511D01*
X298418452Y-209998511D02*
X298418452Y-211617559D01*
X298513690Y-211808035D01*
X298608928Y-211903273D01*
X298799404Y-211998511D01*
X299180357Y-211998511D01*
X299370833Y-211903273D01*
X299466071Y-211808035D01*
X299561309Y-211617559D01*
X299561309Y-209998511D01*
X300513690Y-211998511D02*
X300513690Y-209998511D01*
X301180357Y-211427083D01*
X301847023Y-209998511D01*
X301847023Y-211998511D01*
X303656547Y-209998511D02*
X303275595Y-209998511D01*
X303085119Y-210093750D01*
X302989880Y-210188988D01*
X302799404Y-210474702D01*
X302704166Y-210855654D01*
X302704166Y-211617559D01*
X302799404Y-211808035D01*
X302894642Y-211903273D01*
X303085119Y-211998511D01*
X303466071Y-211998511D01*
X303656547Y-211903273D01*
X303751785Y-211808035D01*
X303847023Y-211617559D01*
X303847023Y-211141369D01*
X303751785Y-210950892D01*
X303656547Y-210855654D01*
X303466071Y-210760416D01*
X303085119Y-210760416D01*
X302894642Y-210855654D01*
X302799404Y-210950892D01*
X302704166Y-211141369D01*
D10*
%TO.C,U3*%
X304063169Y-259901491D02*
X304635589Y-260473911D01*
X304736604Y-260507583D01*
X304803948Y-260507583D01*
X304904963Y-260473911D01*
X305039650Y-260339224D01*
X305073322Y-260238209D01*
X305073322Y-260170865D01*
X305039650Y-260069850D01*
X304467230Y-259497430D01*
X304736604Y-259228056D02*
X305174337Y-258790324D01*
X305208009Y-259295400D01*
X305309024Y-259194385D01*
X305410039Y-259160713D01*
X305477383Y-259160713D01*
X305578398Y-259194385D01*
X305746757Y-259362743D01*
X305780429Y-259463759D01*
X305780429Y-259531102D01*
X305746757Y-259632117D01*
X305544726Y-259834148D01*
X305443711Y-259867820D01*
X305376368Y-259867820D01*
%TO.C,U6*%
X285013169Y-240851491D02*
X285585589Y-241423911D01*
X285686604Y-241457583D01*
X285753948Y-241457583D01*
X285854963Y-241423911D01*
X285989650Y-241289224D01*
X286023322Y-241188209D01*
X286023322Y-241120865D01*
X285989650Y-241019850D01*
X285417230Y-240447430D01*
X286056994Y-239807667D02*
X285922307Y-239942354D01*
X285888635Y-240043369D01*
X285888635Y-240110713D01*
X285922307Y-240279072D01*
X286023322Y-240447430D01*
X286292696Y-240716804D01*
X286393711Y-240750476D01*
X286461055Y-240750476D01*
X286562070Y-240716804D01*
X286696757Y-240582117D01*
X286730429Y-240481102D01*
X286730429Y-240413759D01*
X286696757Y-240312743D01*
X286528398Y-240144385D01*
X286427383Y-240110713D01*
X286360039Y-240110713D01*
X286259024Y-240144385D01*
X286124337Y-240279072D01*
X286090665Y-240380087D01*
X286090665Y-240447430D01*
X286124337Y-240548446D01*
%TO.C,U11*%
X319382340Y-209219097D02*
X319954760Y-209791517D01*
X320055775Y-209825188D01*
X320123118Y-209825188D01*
X320224134Y-209791517D01*
X320358821Y-209656830D01*
X320392492Y-209555814D01*
X320392492Y-209488471D01*
X320358821Y-209387456D01*
X319786401Y-208815036D01*
X321200614Y-208815036D02*
X320796553Y-209219097D01*
X320998584Y-209017066D02*
X320291477Y-208309960D01*
X320325149Y-208478318D01*
X320325149Y-208613005D01*
X320291477Y-208714021D01*
X321874049Y-208141601D02*
X321469988Y-208545662D01*
X321672019Y-208343631D02*
X320964912Y-207636525D01*
X320998584Y-207804883D01*
X320998584Y-207939570D01*
X320964912Y-208040586D01*
D11*
%TO.C,AM1:14*%
X319911309Y-213635416D02*
X320387500Y-213635416D01*
X319816071Y-213921130D02*
X320149404Y-212921130D01*
X320482738Y-213921130D01*
X320816071Y-213921130D02*
X320816071Y-212921130D01*
X321149404Y-213635416D01*
X321482738Y-212921130D01*
X321482738Y-213921130D01*
X322482738Y-213921130D02*
X321911309Y-213921130D01*
X322197023Y-213921130D02*
X322197023Y-212921130D01*
X322101785Y-213063988D01*
X322006547Y-213159226D01*
X321911309Y-213206845D01*
X322911309Y-213825892D02*
X322958928Y-213873511D01*
X322911309Y-213921130D01*
X322863690Y-213873511D01*
X322911309Y-213825892D01*
X322911309Y-213921130D01*
X322911309Y-213302083D02*
X322958928Y-213349702D01*
X322911309Y-213397321D01*
X322863690Y-213349702D01*
X322911309Y-213302083D01*
X322911309Y-213397321D01*
X323911309Y-213921130D02*
X323339880Y-213921130D01*
X323625595Y-213921130D02*
X323625595Y-212921130D01*
X323530357Y-213063988D01*
X323435119Y-213159226D01*
X323339880Y-213206845D01*
X324768452Y-213254464D02*
X324768452Y-213921130D01*
X324530357Y-212873511D02*
X324292261Y-213587797D01*
X324911309Y-213587797D01*
D12*
X315087500Y-202473511D02*
X315087500Y-200473511D01*
X316230357Y-202473511D01*
X316230357Y-200473511D01*
X317182738Y-200473511D02*
X317182738Y-202092559D01*
X317277976Y-202283035D01*
X317373214Y-202378273D01*
X317563690Y-202473511D01*
X317944642Y-202473511D01*
X318135119Y-202378273D01*
X318230357Y-202283035D01*
X318325595Y-202092559D01*
X318325595Y-200473511D01*
X319277976Y-202473511D02*
X319277976Y-200473511D01*
X319944642Y-201902083D01*
X320611309Y-200473511D01*
X320611309Y-202473511D01*
X321563690Y-201711607D02*
X323087500Y-201711607D01*
X322325595Y-202473511D02*
X322325595Y-200949702D01*
D10*
%TO.C,F1*%
X310458572Y-138283336D02*
X310458572Y-138616669D01*
X310982381Y-138616669D02*
X309982381Y-138616669D01*
X309982381Y-138140479D01*
X310982381Y-137235717D02*
X310982381Y-137807145D01*
X310982381Y-137521431D02*
X309982381Y-137521431D01*
X310125239Y-137616669D01*
X310220477Y-137711907D01*
X310268096Y-137807145D01*
D11*
%TO.C,AM0:8*%
X282287500Y-185060416D02*
X282763690Y-185060416D01*
X282192261Y-185346130D02*
X282525595Y-184346130D01*
X282858928Y-185346130D01*
X283192261Y-185346130D02*
X283192261Y-184346130D01*
X283525595Y-185060416D01*
X283858928Y-184346130D01*
X283858928Y-185346130D01*
X284525595Y-184346130D02*
X284620833Y-184346130D01*
X284716071Y-184393750D01*
X284763690Y-184441369D01*
X284811309Y-184536607D01*
X284858928Y-184727083D01*
X284858928Y-184965178D01*
X284811309Y-185155654D01*
X284763690Y-185250892D01*
X284716071Y-185298511D01*
X284620833Y-185346130D01*
X284525595Y-185346130D01*
X284430357Y-185298511D01*
X284382738Y-185250892D01*
X284335119Y-185155654D01*
X284287500Y-184965178D01*
X284287500Y-184727083D01*
X284335119Y-184536607D01*
X284382738Y-184441369D01*
X284430357Y-184393750D01*
X284525595Y-184346130D01*
X285287500Y-185250892D02*
X285335119Y-185298511D01*
X285287500Y-185346130D01*
X285239880Y-185298511D01*
X285287500Y-185250892D01*
X285287500Y-185346130D01*
X285287500Y-184727083D02*
X285335119Y-184774702D01*
X285287500Y-184822321D01*
X285239880Y-184774702D01*
X285287500Y-184727083D01*
X285287500Y-184822321D01*
X285906547Y-184774702D02*
X285811309Y-184727083D01*
X285763690Y-184679464D01*
X285716071Y-184584226D01*
X285716071Y-184536607D01*
X285763690Y-184441369D01*
X285811309Y-184393750D01*
X285906547Y-184346130D01*
X286097023Y-184346130D01*
X286192261Y-184393750D01*
X286239880Y-184441369D01*
X286287500Y-184536607D01*
X286287500Y-184584226D01*
X286239880Y-184679464D01*
X286192261Y-184727083D01*
X286097023Y-184774702D01*
X285906547Y-184774702D01*
X285811309Y-184822321D01*
X285763690Y-184869940D01*
X285716071Y-184965178D01*
X285716071Y-185155654D01*
X285763690Y-185250892D01*
X285811309Y-185298511D01*
X285906547Y-185346130D01*
X286097023Y-185346130D01*
X286192261Y-185298511D01*
X286239880Y-185250892D01*
X286287500Y-185155654D01*
X286287500Y-184965178D01*
X286239880Y-184869940D01*
X286192261Y-184822321D01*
X286097023Y-184774702D01*
D12*
X272749404Y-173898511D02*
X272749404Y-171898511D01*
X273892261Y-173898511D01*
X273892261Y-171898511D01*
X274844642Y-171898511D02*
X274844642Y-173517559D01*
X274939880Y-173708035D01*
X275035119Y-173803273D01*
X275225595Y-173898511D01*
X275606547Y-173898511D01*
X275797023Y-173803273D01*
X275892261Y-173708035D01*
X275987500Y-173517559D01*
X275987500Y-171898511D01*
X276939880Y-173898511D02*
X276939880Y-171898511D01*
X277606547Y-173327083D01*
X278273214Y-171898511D01*
X278273214Y-173898511D01*
X279892261Y-172850892D02*
X279225595Y-172850892D01*
X279225595Y-173898511D02*
X279225595Y-171898511D01*
X280177976Y-171898511D01*
X280844642Y-173803273D02*
X281130357Y-173898511D01*
X281606547Y-173898511D01*
X281797023Y-173803273D01*
X281892261Y-173708035D01*
X281987500Y-173517559D01*
X281987500Y-173327083D01*
X281892261Y-173136607D01*
X281797023Y-173041369D01*
X281606547Y-172946130D01*
X281225595Y-172850892D01*
X281035119Y-172755654D01*
X280939880Y-172660416D01*
X280844642Y-172469940D01*
X280844642Y-172279464D01*
X280939880Y-172088988D01*
X281035119Y-171993750D01*
X281225595Y-171898511D01*
X281701785Y-171898511D01*
X281987500Y-171993750D01*
X283797023Y-173898511D02*
X282844642Y-173898511D01*
X282844642Y-171898511D01*
X284368452Y-173327083D02*
X285320833Y-173327083D01*
X284177976Y-173898511D02*
X284844642Y-171898511D01*
X285511309Y-173898511D01*
X286082738Y-173803273D02*
X286368452Y-173898511D01*
X286844642Y-173898511D01*
X287035119Y-173803273D01*
X287130357Y-173708035D01*
X287225595Y-173517559D01*
X287225595Y-173327083D01*
X287130357Y-173136607D01*
X287035119Y-173041369D01*
X286844642Y-172946130D01*
X286463690Y-172850892D01*
X286273214Y-172755654D01*
X286177976Y-172660416D01*
X286082738Y-172469940D01*
X286082738Y-172279464D01*
X286177976Y-172088988D01*
X286273214Y-171993750D01*
X286463690Y-171898511D01*
X286939880Y-171898511D01*
X287225595Y-171993750D01*
X288082738Y-173898511D02*
X288082738Y-171898511D01*
X288082738Y-172850892D02*
X289225595Y-172850892D01*
X289225595Y-173898511D02*
X289225595Y-171898511D01*
D10*
%TO.C,U13*%
X281282340Y-199694097D02*
X281854760Y-200266517D01*
X281955775Y-200300188D01*
X282023118Y-200300188D01*
X282124134Y-200266517D01*
X282258821Y-200131830D01*
X282292492Y-200030814D01*
X282292492Y-199963471D01*
X282258821Y-199862456D01*
X281686401Y-199290036D01*
X283100614Y-199290036D02*
X282696553Y-199694097D01*
X282898584Y-199492066D02*
X282191477Y-198784960D01*
X282225149Y-198953318D01*
X282225149Y-199088005D01*
X282191477Y-199189021D01*
X282629210Y-198347227D02*
X283066943Y-197909494D01*
X283100614Y-198414570D01*
X283201630Y-198313555D01*
X283302645Y-198279883D01*
X283369988Y-198279883D01*
X283471004Y-198313555D01*
X283639362Y-198481914D01*
X283673034Y-198582929D01*
X283673034Y-198650273D01*
X283639362Y-198751288D01*
X283437332Y-198953318D01*
X283336317Y-198986990D01*
X283268973Y-198986990D01*
%TO.C,J1*%
X250946130Y-164639583D02*
X251660416Y-164639583D01*
X251803273Y-164687202D01*
X251898511Y-164782440D01*
X251946130Y-164925297D01*
X251946130Y-165020535D01*
X251946130Y-163639583D02*
X251946130Y-164211011D01*
X251946130Y-163925297D02*
X250946130Y-163925297D01*
X251088988Y-164020535D01*
X251184226Y-164115773D01*
X251231845Y-164211011D01*
%TO.C,AM0*%
X272558035Y-206847916D02*
X273034226Y-206847916D01*
X272462797Y-207133630D02*
X272796130Y-206133630D01*
X273129464Y-207133630D01*
X273462797Y-207133630D02*
X273462797Y-206133630D01*
X273796130Y-206847916D01*
X274129464Y-206133630D01*
X274129464Y-207133630D01*
X274796130Y-206133630D02*
X274891369Y-206133630D01*
X274986607Y-206181250D01*
X275034226Y-206228869D01*
X275081845Y-206324107D01*
X275129464Y-206514583D01*
X275129464Y-206752678D01*
X275081845Y-206943154D01*
X275034226Y-207038392D01*
X274986607Y-207086011D01*
X274891369Y-207133630D01*
X274796130Y-207133630D01*
X274700892Y-207086011D01*
X274653273Y-207038392D01*
X274605654Y-206943154D01*
X274558035Y-206752678D01*
X274558035Y-206514583D01*
X274605654Y-206324107D01*
X274653273Y-206228869D01*
X274700892Y-206181250D01*
X274796130Y-206133630D01*
%TO.C,R1*%
X258012380Y-162466666D02*
X257536190Y-162800000D01*
X258012380Y-163038095D02*
X257012380Y-163038095D01*
X257012380Y-162657142D01*
X257060000Y-162561904D01*
X257107619Y-162514285D01*
X257202857Y-162466666D01*
X257345714Y-162466666D01*
X257440952Y-162514285D01*
X257488571Y-162561904D01*
X257536190Y-162657142D01*
X257536190Y-163038095D01*
X258012380Y-161514285D02*
X258012380Y-162085714D01*
X258012380Y-161800000D02*
X257012380Y-161800000D01*
X257155238Y-161895238D01*
X257250476Y-161990476D01*
X257298095Y-162085714D01*
%TO.C,R2*%
X260352380Y-164476666D02*
X259876190Y-164810000D01*
X260352380Y-165048095D02*
X259352380Y-165048095D01*
X259352380Y-164667142D01*
X259400000Y-164571904D01*
X259447619Y-164524285D01*
X259542857Y-164476666D01*
X259685714Y-164476666D01*
X259780952Y-164524285D01*
X259828571Y-164571904D01*
X259876190Y-164667142D01*
X259876190Y-165048095D01*
X259447619Y-164095714D02*
X259400000Y-164048095D01*
X259352380Y-163952857D01*
X259352380Y-163714761D01*
X259400000Y-163619523D01*
X259447619Y-163571904D01*
X259542857Y-163524285D01*
X259638095Y-163524285D01*
X259780952Y-163571904D01*
X260352380Y-164143333D01*
X260352380Y-163524285D01*
%TO.C,FB1*%
X306758571Y-143083335D02*
X306758571Y-143416668D01*
X307282380Y-143416668D02*
X306282380Y-143416668D01*
X306282380Y-142940478D01*
X306758571Y-142226192D02*
X306806190Y-142083335D01*
X306853809Y-142035716D01*
X306949047Y-141988097D01*
X307091904Y-141988097D01*
X307187142Y-142035716D01*
X307234761Y-142083335D01*
X307282380Y-142178573D01*
X307282380Y-142559525D01*
X306282380Y-142559525D01*
X306282380Y-142226192D01*
X306330000Y-142130954D01*
X306377619Y-142083335D01*
X306472857Y-142035716D01*
X306568095Y-142035716D01*
X306663333Y-142083335D01*
X306710952Y-142130954D01*
X306758571Y-142226192D01*
X306758571Y-142559525D01*
X307282380Y-141035716D02*
X307282380Y-141607144D01*
X307282380Y-141321430D02*
X306282380Y-141321430D01*
X306425238Y-141416668D01*
X306520476Y-141511906D01*
X306568095Y-141607144D01*
%TO.C,U15*%
X262232340Y-180644097D02*
X262804760Y-181216517D01*
X262905775Y-181250188D01*
X262973118Y-181250188D01*
X263074134Y-181216517D01*
X263208821Y-181081830D01*
X263242492Y-180980814D01*
X263242492Y-180913471D01*
X263208821Y-180812456D01*
X262636401Y-180240036D01*
X264050614Y-180240036D02*
X263646553Y-180644097D01*
X263848584Y-180442066D02*
X263141477Y-179734960D01*
X263175149Y-179903318D01*
X263175149Y-180038005D01*
X263141477Y-180139021D01*
X263983271Y-178893166D02*
X263646553Y-179229883D01*
X263949599Y-179600273D01*
X263949599Y-179532929D01*
X263983271Y-179431914D01*
X264151630Y-179263555D01*
X264252645Y-179229883D01*
X264319988Y-179229883D01*
X264421004Y-179263555D01*
X264589362Y-179431914D01*
X264623034Y-179532929D01*
X264623034Y-179600273D01*
X264589362Y-179701288D01*
X264421004Y-179869647D01*
X264319988Y-179903318D01*
X264252645Y-179903318D01*
%TO.C,H4*%
X256413095Y-143889880D02*
X256413095Y-142889880D01*
X256413095Y-143366071D02*
X256984523Y-143366071D01*
X256984523Y-143889880D02*
X256984523Y-142889880D01*
X257889285Y-143223214D02*
X257889285Y-143889880D01*
X257651190Y-142842261D02*
X257413095Y-143556547D01*
X258032142Y-143556547D01*
D11*
%TO.C,AM0:2*%
X263237500Y-223160416D02*
X263713690Y-223160416D01*
X263142261Y-223446130D02*
X263475595Y-222446130D01*
X263808928Y-223446130D01*
X264142261Y-223446130D02*
X264142261Y-222446130D01*
X264475595Y-223160416D01*
X264808928Y-222446130D01*
X264808928Y-223446130D01*
X265475595Y-222446130D02*
X265570833Y-222446130D01*
X265666071Y-222493750D01*
X265713690Y-222541369D01*
X265761309Y-222636607D01*
X265808928Y-222827083D01*
X265808928Y-223065178D01*
X265761309Y-223255654D01*
X265713690Y-223350892D01*
X265666071Y-223398511D01*
X265570833Y-223446130D01*
X265475595Y-223446130D01*
X265380357Y-223398511D01*
X265332738Y-223350892D01*
X265285119Y-223255654D01*
X265237500Y-223065178D01*
X265237500Y-222827083D01*
X265285119Y-222636607D01*
X265332738Y-222541369D01*
X265380357Y-222493750D01*
X265475595Y-222446130D01*
X266237500Y-223350892D02*
X266285119Y-223398511D01*
X266237500Y-223446130D01*
X266189880Y-223398511D01*
X266237500Y-223350892D01*
X266237500Y-223446130D01*
X266237500Y-222827083D02*
X266285119Y-222874702D01*
X266237500Y-222922321D01*
X266189880Y-222874702D01*
X266237500Y-222827083D01*
X266237500Y-222922321D01*
X266666071Y-222541369D02*
X266713690Y-222493750D01*
X266808928Y-222446130D01*
X267047023Y-222446130D01*
X267142261Y-222493750D01*
X267189880Y-222541369D01*
X267237500Y-222636607D01*
X267237500Y-222731845D01*
X267189880Y-222874702D01*
X266618452Y-223446130D01*
X267237500Y-223446130D01*
D12*
X258223214Y-211998511D02*
X258223214Y-209998511D01*
X259366071Y-211998511D01*
X259366071Y-209998511D01*
X260318452Y-209998511D02*
X260318452Y-211617559D01*
X260413690Y-211808035D01*
X260508928Y-211903273D01*
X260699404Y-211998511D01*
X261080357Y-211998511D01*
X261270833Y-211903273D01*
X261366071Y-211808035D01*
X261461309Y-211617559D01*
X261461309Y-209998511D01*
X262413690Y-211998511D02*
X262413690Y-209998511D01*
X263080357Y-211427083D01*
X263747023Y-209998511D01*
X263747023Y-211998511D01*
X265556547Y-210665178D02*
X265556547Y-211998511D01*
X265080357Y-209903273D02*
X264604166Y-211331845D01*
X265842261Y-211331845D01*
D10*
%TO.C,AM1*%
X305895535Y-206847916D02*
X306371726Y-206847916D01*
X305800297Y-207133630D02*
X306133630Y-206133630D01*
X306466964Y-207133630D01*
X306800297Y-207133630D02*
X306800297Y-206133630D01*
X307133630Y-206847916D01*
X307466964Y-206133630D01*
X307466964Y-207133630D01*
X308466964Y-207133630D02*
X307895535Y-207133630D01*
X308181250Y-207133630D02*
X308181250Y-206133630D01*
X308086011Y-206276488D01*
X307990773Y-206371726D01*
X307895535Y-206419345D01*
%TO.C,FID2*%
X317808571Y-140228571D02*
X317475238Y-140228571D01*
X317475238Y-140752380D02*
X317475238Y-139752380D01*
X317951428Y-139752380D01*
X318332380Y-140752380D02*
X318332380Y-139752380D01*
X318808571Y-140752380D02*
X318808571Y-139752380D01*
X319046666Y-139752380D01*
X319189523Y-139800000D01*
X319284761Y-139895238D01*
X319332380Y-139990476D01*
X319380000Y-140180952D01*
X319380000Y-140323809D01*
X319332380Y-140514285D01*
X319284761Y-140609523D01*
X319189523Y-140704761D01*
X319046666Y-140752380D01*
X318808571Y-140752380D01*
X319760952Y-139847619D02*
X319808571Y-139800000D01*
X319903809Y-139752380D01*
X320141904Y-139752380D01*
X320237142Y-139800000D01*
X320284761Y-139847619D01*
X320332380Y-139942857D01*
X320332380Y-140038095D01*
X320284761Y-140180952D01*
X319713333Y-140752380D01*
X320332380Y-140752380D01*
%TO.C,C2*%
X311780000Y-141566666D02*
X311813333Y-141600000D01*
X311846666Y-141700000D01*
X311846666Y-141766666D01*
X311813333Y-141866666D01*
X311746666Y-141933333D01*
X311680000Y-141966666D01*
X311546666Y-142000000D01*
X311446666Y-142000000D01*
X311313333Y-141966666D01*
X311246666Y-141933333D01*
X311180000Y-141866666D01*
X311146666Y-141766666D01*
X311146666Y-141700000D01*
X311180000Y-141600000D01*
X311213333Y-141566666D01*
X311213333Y-141300000D02*
X311180000Y-141266666D01*
X311146666Y-141200000D01*
X311146666Y-141033333D01*
X311180000Y-140966666D01*
X311213333Y-140933333D01*
X311280000Y-140900000D01*
X311346666Y-140900000D01*
X311446666Y-140933333D01*
X311846666Y-141333333D01*
X311846666Y-140900000D01*
%TO.C,U5*%
X304063169Y-240851491D02*
X304635589Y-241423911D01*
X304736604Y-241457583D01*
X304803948Y-241457583D01*
X304904963Y-241423911D01*
X305039650Y-241289224D01*
X305073322Y-241188209D01*
X305073322Y-241120865D01*
X305039650Y-241019850D01*
X304467230Y-240447430D01*
X305140665Y-239773995D02*
X304803948Y-240110713D01*
X305106994Y-240481102D01*
X305106994Y-240413759D01*
X305140665Y-240312743D01*
X305309024Y-240144385D01*
X305410039Y-240110713D01*
X305477383Y-240110713D01*
X305578398Y-240144385D01*
X305746757Y-240312743D01*
X305780429Y-240413759D01*
X305780429Y-240481102D01*
X305746757Y-240582117D01*
X305578398Y-240750476D01*
X305477383Y-240784148D01*
X305410039Y-240784148D01*
%TO.C,U8*%
X263646553Y-222575942D02*
X264218973Y-222003522D01*
X264252645Y-221902507D01*
X264252645Y-221835163D01*
X264218973Y-221734148D01*
X264084286Y-221599461D01*
X263983271Y-221565789D01*
X263915927Y-221565789D01*
X263814912Y-221599461D01*
X263242492Y-222171881D01*
X263107805Y-221431102D02*
X263141477Y-221532117D01*
X263141477Y-221599461D01*
X263107805Y-221700476D01*
X263074134Y-221734148D01*
X262973118Y-221767820D01*
X262905775Y-221767820D01*
X262804760Y-221734148D01*
X262670073Y-221599461D01*
X262636401Y-221498446D01*
X262636401Y-221431102D01*
X262670073Y-221330087D01*
X262703744Y-221296415D01*
X262804760Y-221262743D01*
X262872103Y-221262743D01*
X262973118Y-221296415D01*
X263107805Y-221431102D01*
X263208821Y-221464774D01*
X263276164Y-221464774D01*
X263377179Y-221431102D01*
X263511866Y-221296415D01*
X263545538Y-221195400D01*
X263545538Y-221128056D01*
X263511866Y-221027041D01*
X263377179Y-220892354D01*
X263276164Y-220858682D01*
X263208821Y-220858682D01*
X263107805Y-220892354D01*
X262973118Y-221027041D01*
X262939447Y-221128056D01*
X262939447Y-221195400D01*
X262973118Y-221296415D01*
%TO.C,D1*%
X315882381Y-142388096D02*
X314882381Y-142388096D01*
X314882381Y-142150001D01*
X314930001Y-142007143D01*
X315025239Y-141911905D01*
X315120477Y-141864286D01*
X315310953Y-141816667D01*
X315453810Y-141816667D01*
X315644286Y-141864286D01*
X315739524Y-141911905D01*
X315834762Y-142007143D01*
X315882381Y-142150001D01*
X315882381Y-142388096D01*
X315882381Y-140864286D02*
X315882381Y-141435715D01*
X315882381Y-141150001D02*
X314882381Y-141150001D01*
X315025239Y-141245239D01*
X315120477Y-141340477D01*
X315168096Y-141435715D01*
D11*
%TO.C,AM1:15*%
X319911309Y-251735416D02*
X320387500Y-251735416D01*
X319816071Y-252021130D02*
X320149404Y-251021130D01*
X320482738Y-252021130D01*
X320816071Y-252021130D02*
X320816071Y-251021130D01*
X321149404Y-251735416D01*
X321482738Y-251021130D01*
X321482738Y-252021130D01*
X322482738Y-252021130D02*
X321911309Y-252021130D01*
X322197023Y-252021130D02*
X322197023Y-251021130D01*
X322101785Y-251163988D01*
X322006547Y-251259226D01*
X321911309Y-251306845D01*
X322911309Y-251925892D02*
X322958928Y-251973511D01*
X322911309Y-252021130D01*
X322863690Y-251973511D01*
X322911309Y-251925892D01*
X322911309Y-252021130D01*
X322911309Y-251402083D02*
X322958928Y-251449702D01*
X322911309Y-251497321D01*
X322863690Y-251449702D01*
X322911309Y-251402083D01*
X322911309Y-251497321D01*
X323911309Y-252021130D02*
X323339880Y-252021130D01*
X323625595Y-252021130D02*
X323625595Y-251021130D01*
X323530357Y-251163988D01*
X323435119Y-251259226D01*
X323339880Y-251306845D01*
X324816071Y-251021130D02*
X324339880Y-251021130D01*
X324292261Y-251497321D01*
X324339880Y-251449702D01*
X324435119Y-251402083D01*
X324673214Y-251402083D01*
X324768452Y-251449702D01*
X324816071Y-251497321D01*
X324863690Y-251592559D01*
X324863690Y-251830654D01*
X324816071Y-251925892D01*
X324768452Y-251973511D01*
X324673214Y-252021130D01*
X324435119Y-252021130D01*
X324339880Y-251973511D01*
X324292261Y-251925892D01*
D12*
X311706547Y-240573511D02*
X311706547Y-238573511D01*
X312849404Y-240573511D01*
X312849404Y-238573511D01*
X313801785Y-238573511D02*
X313801785Y-240192559D01*
X313897023Y-240383035D01*
X313992261Y-240478273D01*
X314182738Y-240573511D01*
X314563690Y-240573511D01*
X314754166Y-240478273D01*
X314849404Y-240383035D01*
X314944642Y-240192559D01*
X314944642Y-238573511D01*
X315897023Y-240573511D02*
X315897023Y-238573511D01*
X316563690Y-240002083D01*
X317230357Y-238573511D01*
X317230357Y-240573511D01*
X318182738Y-239525892D02*
X318849404Y-239525892D01*
X319135119Y-240573511D02*
X318182738Y-240573511D01*
X318182738Y-238573511D01*
X319135119Y-238573511D01*
X319992261Y-240573511D02*
X319992261Y-238573511D01*
X321135119Y-240573511D01*
X321135119Y-238573511D01*
X321801785Y-238573511D02*
X322944642Y-238573511D01*
X322373214Y-240573511D02*
X322373214Y-238573511D01*
X323611309Y-239525892D02*
X324277976Y-239525892D01*
X324563690Y-240573511D02*
X323611309Y-240573511D01*
X323611309Y-238573511D01*
X324563690Y-238573511D01*
X326563690Y-240573511D02*
X325897023Y-239621130D01*
X325420833Y-240573511D02*
X325420833Y-238573511D01*
X326182738Y-238573511D01*
X326373214Y-238668750D01*
X326468452Y-238763988D01*
X326563690Y-238954464D01*
X326563690Y-239240178D01*
X326468452Y-239430654D01*
X326373214Y-239525892D01*
X326182738Y-239621130D01*
X325420833Y-239621130D01*
D11*
%TO.C,AM1:0*%
X301337500Y-261260416D02*
X301813690Y-261260416D01*
X301242261Y-261546130D02*
X301575595Y-260546130D01*
X301908928Y-261546130D01*
X302242261Y-261546130D02*
X302242261Y-260546130D01*
X302575595Y-261260416D01*
X302908928Y-260546130D01*
X302908928Y-261546130D01*
X303908928Y-261546130D02*
X303337500Y-261546130D01*
X303623214Y-261546130D02*
X303623214Y-260546130D01*
X303527976Y-260688988D01*
X303432738Y-260784226D01*
X303337500Y-260831845D01*
X304337500Y-261450892D02*
X304385119Y-261498511D01*
X304337500Y-261546130D01*
X304289880Y-261498511D01*
X304337500Y-261450892D01*
X304337500Y-261546130D01*
X304337500Y-260927083D02*
X304385119Y-260974702D01*
X304337500Y-261022321D01*
X304289880Y-260974702D01*
X304337500Y-260927083D01*
X304337500Y-261022321D01*
X305004166Y-260546130D02*
X305099404Y-260546130D01*
X305194642Y-260593750D01*
X305242261Y-260641369D01*
X305289880Y-260736607D01*
X305337500Y-260927083D01*
X305337500Y-261165178D01*
X305289880Y-261355654D01*
X305242261Y-261450892D01*
X305194642Y-261498511D01*
X305099404Y-261546130D01*
X305004166Y-261546130D01*
X304908928Y-261498511D01*
X304861309Y-261450892D01*
X304813690Y-261355654D01*
X304766071Y-261165178D01*
X304766071Y-260927083D01*
X304813690Y-260736607D01*
X304861309Y-260641369D01*
X304908928Y-260593750D01*
X305004166Y-260546130D01*
D12*
X291847023Y-250098511D02*
X291847023Y-248098511D01*
X292989880Y-250098511D01*
X292989880Y-248098511D01*
X293942261Y-248098511D02*
X293942261Y-249717559D01*
X294037500Y-249908035D01*
X294132738Y-250003273D01*
X294323214Y-250098511D01*
X294704166Y-250098511D01*
X294894642Y-250003273D01*
X294989880Y-249908035D01*
X295085119Y-249717559D01*
X295085119Y-248098511D01*
X296037500Y-250098511D02*
X296037500Y-248098511D01*
X296704166Y-249527083D01*
X297370833Y-248098511D01*
X297370833Y-250098511D01*
X298323214Y-250098511D02*
X298323214Y-248098511D01*
X299085119Y-248098511D01*
X299275595Y-248193750D01*
X299370833Y-248288988D01*
X299466071Y-248479464D01*
X299466071Y-248765178D01*
X299370833Y-248955654D01*
X299275595Y-249050892D01*
X299085119Y-249146130D01*
X298323214Y-249146130D01*
X300323214Y-249050892D02*
X300989880Y-249050892D01*
X301275595Y-250098511D02*
X300323214Y-250098511D01*
X300323214Y-248098511D01*
X301275595Y-248098511D01*
X303275595Y-250098511D02*
X302608928Y-249146130D01*
X302132738Y-250098511D02*
X302132738Y-248098511D01*
X302894642Y-248098511D01*
X303085119Y-248193750D01*
X303180357Y-248288988D01*
X303275595Y-248479464D01*
X303275595Y-248765178D01*
X303180357Y-248955654D01*
X303085119Y-249050892D01*
X302894642Y-249146130D01*
X302132738Y-249146130D01*
X304132738Y-250098511D02*
X304132738Y-248098511D01*
X305466071Y-248098511D02*
X305847023Y-248098511D01*
X306037500Y-248193750D01*
X306227976Y-248384226D01*
X306323214Y-248765178D01*
X306323214Y-249431845D01*
X306227976Y-249812797D01*
X306037500Y-250003273D01*
X305847023Y-250098511D01*
X305466071Y-250098511D01*
X305275595Y-250003273D01*
X305085119Y-249812797D01*
X304989880Y-249431845D01*
X304989880Y-248765178D01*
X305085119Y-248384226D01*
X305275595Y-248193750D01*
X305466071Y-248098511D01*
X307180357Y-250098511D02*
X307180357Y-248098511D01*
X307656547Y-248098511D01*
X307942261Y-248193750D01*
X308132738Y-248384226D01*
X308227976Y-248574702D01*
X308323214Y-248955654D01*
X308323214Y-249241369D01*
X308227976Y-249622321D01*
X308132738Y-249812797D01*
X307942261Y-250003273D01*
X307656547Y-250098511D01*
X307180357Y-250098511D01*
D10*
%TO.C,H3*%
X323088095Y-143889880D02*
X323088095Y-142889880D01*
X323088095Y-143366071D02*
X323659523Y-143366071D01*
X323659523Y-143889880D02*
X323659523Y-142889880D01*
X324040476Y-142889880D02*
X324659523Y-142889880D01*
X324326190Y-143270833D01*
X324469047Y-143270833D01*
X324564285Y-143318452D01*
X324611904Y-143366071D01*
X324659523Y-143461309D01*
X324659523Y-143699404D01*
X324611904Y-143794642D01*
X324564285Y-143842261D01*
X324469047Y-143889880D01*
X324183333Y-143889880D01*
X324088095Y-143842261D01*
X324040476Y-143794642D01*
%TO.C,U7*%
X263646553Y-241625942D02*
X264218973Y-241053522D01*
X264252645Y-240952507D01*
X264252645Y-240885163D01*
X264218973Y-240784148D01*
X264084286Y-240649461D01*
X263983271Y-240615789D01*
X263915927Y-240615789D01*
X263814912Y-240649461D01*
X263242492Y-241221881D01*
X262973118Y-240952507D02*
X262501714Y-240481102D01*
X263511866Y-240077041D01*
D11*
%TO.C,AM1:7*%
X301337500Y-185060416D02*
X301813690Y-185060416D01*
X301242261Y-185346130D02*
X301575595Y-184346130D01*
X301908928Y-185346130D01*
X302242261Y-185346130D02*
X302242261Y-184346130D01*
X302575595Y-185060416D01*
X302908928Y-184346130D01*
X302908928Y-185346130D01*
X303908928Y-185346130D02*
X303337500Y-185346130D01*
X303623214Y-185346130D02*
X303623214Y-184346130D01*
X303527976Y-184488988D01*
X303432738Y-184584226D01*
X303337500Y-184631845D01*
X304337500Y-185250892D02*
X304385119Y-185298511D01*
X304337500Y-185346130D01*
X304289880Y-185298511D01*
X304337500Y-185250892D01*
X304337500Y-185346130D01*
X304337500Y-184727083D02*
X304385119Y-184774702D01*
X304337500Y-184822321D01*
X304289880Y-184774702D01*
X304337500Y-184727083D01*
X304337500Y-184822321D01*
X304718452Y-184346130D02*
X305385119Y-184346130D01*
X304956547Y-185346130D01*
D12*
X293704166Y-173898511D02*
X293704166Y-171898511D01*
X294847023Y-173898511D01*
X294847023Y-171898511D01*
X295799404Y-171898511D02*
X295799404Y-173517559D01*
X295894642Y-173708035D01*
X295989880Y-173803273D01*
X296180357Y-173898511D01*
X296561309Y-173898511D01*
X296751785Y-173803273D01*
X296847023Y-173708035D01*
X296942261Y-173517559D01*
X296942261Y-171898511D01*
X297894642Y-173898511D02*
X297894642Y-171898511D01*
X298561309Y-173327083D01*
X299227976Y-171898511D01*
X299227976Y-173898511D01*
X300085119Y-173803273D02*
X300370833Y-173898511D01*
X300847023Y-173898511D01*
X301037500Y-173803273D01*
X301132738Y-173708035D01*
X301227976Y-173517559D01*
X301227976Y-173327083D01*
X301132738Y-173136607D01*
X301037500Y-173041369D01*
X300847023Y-172946130D01*
X300466071Y-172850892D01*
X300275595Y-172755654D01*
X300180357Y-172660416D01*
X300085119Y-172469940D01*
X300085119Y-172279464D01*
X300180357Y-172088988D01*
X300275595Y-171993750D01*
X300466071Y-171898511D01*
X300942261Y-171898511D01*
X301227976Y-171993750D01*
X301799404Y-171898511D02*
X302942261Y-171898511D01*
X302370833Y-173898511D02*
X302370833Y-171898511D01*
X303513690Y-173327083D02*
X304466071Y-173327083D01*
X303323214Y-173898511D02*
X303989880Y-171898511D01*
X304656547Y-173898511D01*
X306466071Y-173898511D02*
X305799404Y-172946130D01*
X305323214Y-173898511D02*
X305323214Y-171898511D01*
X306085119Y-171898511D01*
X306275595Y-171993750D01*
X306370833Y-172088988D01*
X306466071Y-172279464D01*
X306466071Y-172565178D01*
X306370833Y-172755654D01*
X306275595Y-172850892D01*
X306085119Y-172946130D01*
X305323214Y-172946130D01*
D11*
%TO.C,AM0:15*%
X281811309Y-242210416D02*
X282287500Y-242210416D01*
X281716071Y-242496130D02*
X282049404Y-241496130D01*
X282382738Y-242496130D01*
X282716071Y-242496130D02*
X282716071Y-241496130D01*
X283049404Y-242210416D01*
X283382738Y-241496130D01*
X283382738Y-242496130D01*
X284049404Y-241496130D02*
X284144642Y-241496130D01*
X284239880Y-241543750D01*
X284287500Y-241591369D01*
X284335119Y-241686607D01*
X284382738Y-241877083D01*
X284382738Y-242115178D01*
X284335119Y-242305654D01*
X284287500Y-242400892D01*
X284239880Y-242448511D01*
X284144642Y-242496130D01*
X284049404Y-242496130D01*
X283954166Y-242448511D01*
X283906547Y-242400892D01*
X283858928Y-242305654D01*
X283811309Y-242115178D01*
X283811309Y-241877083D01*
X283858928Y-241686607D01*
X283906547Y-241591369D01*
X283954166Y-241543750D01*
X284049404Y-241496130D01*
X284811309Y-242400892D02*
X284858928Y-242448511D01*
X284811309Y-242496130D01*
X284763690Y-242448511D01*
X284811309Y-242400892D01*
X284811309Y-242496130D01*
X284811309Y-241877083D02*
X284858928Y-241924702D01*
X284811309Y-241972321D01*
X284763690Y-241924702D01*
X284811309Y-241877083D01*
X284811309Y-241972321D01*
X285811309Y-242496130D02*
X285239880Y-242496130D01*
X285525595Y-242496130D02*
X285525595Y-241496130D01*
X285430357Y-241638988D01*
X285335119Y-241734226D01*
X285239880Y-241781845D01*
X286716071Y-241496130D02*
X286239880Y-241496130D01*
X286192261Y-241972321D01*
X286239880Y-241924702D01*
X286335119Y-241877083D01*
X286573214Y-241877083D01*
X286668452Y-241924702D01*
X286716071Y-241972321D01*
X286763690Y-242067559D01*
X286763690Y-242305654D01*
X286716071Y-242400892D01*
X286668452Y-242448511D01*
X286573214Y-242496130D01*
X286335119Y-242496130D01*
X286239880Y-242448511D01*
X286192261Y-242400892D01*
D12*
X277273214Y-231048511D02*
X277273214Y-229048511D01*
X278416071Y-231048511D01*
X278416071Y-229048511D01*
X279368452Y-229048511D02*
X279368452Y-230667559D01*
X279463690Y-230858035D01*
X279558928Y-230953273D01*
X279749404Y-231048511D01*
X280130357Y-231048511D01*
X280320833Y-230953273D01*
X280416071Y-230858035D01*
X280511309Y-230667559D01*
X280511309Y-229048511D01*
X281463690Y-231048511D02*
X281463690Y-229048511D01*
X282130357Y-230477083D01*
X282797023Y-229048511D01*
X282797023Y-231048511D01*
X283654166Y-229238988D02*
X283749404Y-229143750D01*
X283939880Y-229048511D01*
X284416071Y-229048511D01*
X284606547Y-229143750D01*
X284701785Y-229238988D01*
X284797023Y-229429464D01*
X284797023Y-229619940D01*
X284701785Y-229905654D01*
X283558928Y-231048511D01*
X284797023Y-231048511D01*
D10*
%TO.C,C1*%
X310480000Y-141566668D02*
X310513333Y-141600002D01*
X310546666Y-141700002D01*
X310546666Y-141766668D01*
X310513333Y-141866668D01*
X310446666Y-141933335D01*
X310380000Y-141966668D01*
X310246666Y-142000002D01*
X310146666Y-142000002D01*
X310013333Y-141966668D01*
X309946666Y-141933335D01*
X309880000Y-141866668D01*
X309846666Y-141766668D01*
X309846666Y-141700002D01*
X309880000Y-141600002D01*
X309913333Y-141566668D01*
X310546666Y-140900002D02*
X310546666Y-141300002D01*
X310546666Y-141100002D02*
X309846666Y-141100002D01*
X309946666Y-141166668D01*
X310013333Y-141233335D01*
X310046666Y-141300002D01*
D11*
%TO.C,AM0:6*%
X263237500Y-204110416D02*
X263713690Y-204110416D01*
X263142261Y-204396130D02*
X263475595Y-203396130D01*
X263808928Y-204396130D01*
X264142261Y-204396130D02*
X264142261Y-203396130D01*
X264475595Y-204110416D01*
X264808928Y-203396130D01*
X264808928Y-204396130D01*
X265475595Y-203396130D02*
X265570833Y-203396130D01*
X265666071Y-203443750D01*
X265713690Y-203491369D01*
X265761309Y-203586607D01*
X265808928Y-203777083D01*
X265808928Y-204015178D01*
X265761309Y-204205654D01*
X265713690Y-204300892D01*
X265666071Y-204348511D01*
X265570833Y-204396130D01*
X265475595Y-204396130D01*
X265380357Y-204348511D01*
X265332738Y-204300892D01*
X265285119Y-204205654D01*
X265237500Y-204015178D01*
X265237500Y-203777083D01*
X265285119Y-203586607D01*
X265332738Y-203491369D01*
X265380357Y-203443750D01*
X265475595Y-203396130D01*
X266237500Y-204300892D02*
X266285119Y-204348511D01*
X266237500Y-204396130D01*
X266189880Y-204348511D01*
X266237500Y-204300892D01*
X266237500Y-204396130D01*
X266237500Y-203777083D02*
X266285119Y-203824702D01*
X266237500Y-203872321D01*
X266189880Y-203824702D01*
X266237500Y-203777083D01*
X266237500Y-203872321D01*
X267142261Y-203396130D02*
X266951785Y-203396130D01*
X266856547Y-203443750D01*
X266808928Y-203491369D01*
X266713690Y-203634226D01*
X266666071Y-203824702D01*
X266666071Y-204205654D01*
X266713690Y-204300892D01*
X266761309Y-204348511D01*
X266856547Y-204396130D01*
X267047023Y-204396130D01*
X267142261Y-204348511D01*
X267189880Y-204300892D01*
X267237500Y-204205654D01*
X267237500Y-203967559D01*
X267189880Y-203872321D01*
X267142261Y-203824702D01*
X267047023Y-203777083D01*
X266856547Y-203777083D01*
X266761309Y-203824702D01*
X266713690Y-203872321D01*
X266666071Y-203967559D01*
D12*
X258223214Y-192948511D02*
X258223214Y-190948511D01*
X259366071Y-192948511D01*
X259366071Y-190948511D01*
X260318452Y-190948511D02*
X260318452Y-192567559D01*
X260413690Y-192758035D01*
X260508928Y-192853273D01*
X260699404Y-192948511D01*
X261080357Y-192948511D01*
X261270833Y-192853273D01*
X261366071Y-192758035D01*
X261461309Y-192567559D01*
X261461309Y-190948511D01*
X262413690Y-192948511D02*
X262413690Y-190948511D01*
X263080357Y-192377083D01*
X263747023Y-190948511D01*
X263747023Y-192948511D01*
X264508928Y-190948511D02*
X265842261Y-190948511D01*
X264985119Y-192948511D01*
D10*
%TO.C,U10*%
X303726452Y-222138209D02*
X304298872Y-222710629D01*
X304399887Y-222744300D01*
X304467230Y-222744300D01*
X304568246Y-222710629D01*
X304702933Y-222575942D01*
X304736604Y-222474926D01*
X304736604Y-222407583D01*
X304702933Y-222306568D01*
X304130513Y-221734148D01*
X305544726Y-221734148D02*
X305140665Y-222138209D01*
X305342696Y-221936178D02*
X304635589Y-221229072D01*
X304669261Y-221397430D01*
X304669261Y-221532117D01*
X304635589Y-221633133D01*
X305275352Y-220589308D02*
X305342696Y-220521965D01*
X305443711Y-220488293D01*
X305511055Y-220488293D01*
X305612070Y-220521965D01*
X305780429Y-220622980D01*
X305948787Y-220791339D01*
X306049803Y-220959698D01*
X306083474Y-221060713D01*
X306083474Y-221128056D01*
X306049803Y-221229072D01*
X305982459Y-221296415D01*
X305881444Y-221330087D01*
X305814100Y-221330087D01*
X305713085Y-221296415D01*
X305544726Y-221195400D01*
X305376368Y-221027041D01*
X305275352Y-220858682D01*
X305241681Y-220757667D01*
X305241681Y-220690324D01*
X305275352Y-220589308D01*
%TO.C,FID3*%
X261838571Y-164998571D02*
X261505238Y-164998571D01*
X261505238Y-165522380D02*
X261505238Y-164522380D01*
X261981428Y-164522380D01*
X262362380Y-165522380D02*
X262362380Y-164522380D01*
X262838571Y-165522380D02*
X262838571Y-164522380D01*
X263076666Y-164522380D01*
X263219523Y-164570000D01*
X263314761Y-164665238D01*
X263362380Y-164760476D01*
X263410000Y-164950952D01*
X263410000Y-165093809D01*
X263362380Y-165284285D01*
X263314761Y-165379523D01*
X263219523Y-165474761D01*
X263076666Y-165522380D01*
X262838571Y-165522380D01*
X263743333Y-164522380D02*
X264362380Y-164522380D01*
X264029047Y-164903333D01*
X264171904Y-164903333D01*
X264267142Y-164950952D01*
X264314761Y-164998571D01*
X264362380Y-165093809D01*
X264362380Y-165331904D01*
X264314761Y-165427142D01*
X264267142Y-165474761D01*
X264171904Y-165522380D01*
X263886190Y-165522380D01*
X263790952Y-165474761D01*
X263743333Y-165427142D01*
D11*
%TO.C,AM0:14*%
X281811309Y-223160416D02*
X282287500Y-223160416D01*
X281716071Y-223446130D02*
X282049404Y-222446130D01*
X282382738Y-223446130D01*
X282716071Y-223446130D02*
X282716071Y-222446130D01*
X283049404Y-223160416D01*
X283382738Y-222446130D01*
X283382738Y-223446130D01*
X284049404Y-222446130D02*
X284144642Y-222446130D01*
X284239880Y-222493750D01*
X284287500Y-222541369D01*
X284335119Y-222636607D01*
X284382738Y-222827083D01*
X284382738Y-223065178D01*
X284335119Y-223255654D01*
X284287500Y-223350892D01*
X284239880Y-223398511D01*
X284144642Y-223446130D01*
X284049404Y-223446130D01*
X283954166Y-223398511D01*
X283906547Y-223350892D01*
X283858928Y-223255654D01*
X283811309Y-223065178D01*
X283811309Y-222827083D01*
X283858928Y-222636607D01*
X283906547Y-222541369D01*
X283954166Y-222493750D01*
X284049404Y-222446130D01*
X284811309Y-223350892D02*
X284858928Y-223398511D01*
X284811309Y-223446130D01*
X284763690Y-223398511D01*
X284811309Y-223350892D01*
X284811309Y-223446130D01*
X284811309Y-222827083D02*
X284858928Y-222874702D01*
X284811309Y-222922321D01*
X284763690Y-222874702D01*
X284811309Y-222827083D01*
X284811309Y-222922321D01*
X285811309Y-223446130D02*
X285239880Y-223446130D01*
X285525595Y-223446130D02*
X285525595Y-222446130D01*
X285430357Y-222588988D01*
X285335119Y-222684226D01*
X285239880Y-222731845D01*
X286668452Y-222779464D02*
X286668452Y-223446130D01*
X286430357Y-222398511D02*
X286192261Y-223112797D01*
X286811309Y-223112797D01*
D12*
X277273214Y-211998511D02*
X277273214Y-209998511D01*
X278416071Y-211998511D01*
X278416071Y-209998511D01*
X279368452Y-209998511D02*
X279368452Y-211617559D01*
X279463690Y-211808035D01*
X279558928Y-211903273D01*
X279749404Y-211998511D01*
X280130357Y-211998511D01*
X280320833Y-211903273D01*
X280416071Y-211808035D01*
X280511309Y-211617559D01*
X280511309Y-209998511D01*
X281463690Y-211998511D02*
X281463690Y-209998511D01*
X282130357Y-211427083D01*
X282797023Y-209998511D01*
X282797023Y-211998511D01*
X284701785Y-209998511D02*
X283749404Y-209998511D01*
X283654166Y-210950892D01*
X283749404Y-210855654D01*
X283939880Y-210760416D01*
X284416071Y-210760416D01*
X284606547Y-210855654D01*
X284701785Y-210950892D01*
X284797023Y-211141369D01*
X284797023Y-211617559D01*
X284701785Y-211808035D01*
X284606547Y-211903273D01*
X284416071Y-211998511D01*
X283939880Y-211998511D01*
X283749404Y-211903273D01*
X283654166Y-211808035D01*
D10*
%TO.C,U4*%
X323113169Y-250376491D02*
X323685589Y-250948911D01*
X323786604Y-250982583D01*
X323853948Y-250982583D01*
X323954963Y-250948911D01*
X324089650Y-250814224D01*
X324123322Y-250713209D01*
X324123322Y-250645865D01*
X324089650Y-250544850D01*
X323517230Y-249972430D01*
X324392696Y-249568369D02*
X324864100Y-250039774D01*
X323954963Y-249467354D02*
X324291681Y-250140789D01*
X324729413Y-249703056D01*
%TO.C,FID1*%
X286248571Y-249328571D02*
X285915238Y-249328571D01*
X285915238Y-249852380D02*
X285915238Y-248852380D01*
X286391428Y-248852380D01*
X286772380Y-249852380D02*
X286772380Y-248852380D01*
X287248571Y-249852380D02*
X287248571Y-248852380D01*
X287486666Y-248852380D01*
X287629523Y-248900000D01*
X287724761Y-248995238D01*
X287772380Y-249090476D01*
X287820000Y-249280952D01*
X287820000Y-249423809D01*
X287772380Y-249614285D01*
X287724761Y-249709523D01*
X287629523Y-249804761D01*
X287486666Y-249852380D01*
X287248571Y-249852380D01*
X288772380Y-249852380D02*
X288200952Y-249852380D01*
X288486666Y-249852380D02*
X288486666Y-248852380D01*
X288391428Y-248995238D01*
X288296190Y-249090476D01*
X288200952Y-249138095D01*
%TO.C,U12*%
X300332340Y-199694097D02*
X300904760Y-200266517D01*
X301005775Y-200300188D01*
X301073118Y-200300188D01*
X301174134Y-200266517D01*
X301308821Y-200131830D01*
X301342492Y-200030814D01*
X301342492Y-199963471D01*
X301308821Y-199862456D01*
X300736401Y-199290036D01*
X302150614Y-199290036D02*
X301746553Y-199694097D01*
X301948584Y-199492066D02*
X301241477Y-198784960D01*
X301275149Y-198953318D01*
X301275149Y-199088005D01*
X301241477Y-199189021D01*
X301780225Y-198380899D02*
X301780225Y-198313555D01*
X301813897Y-198212540D01*
X301982256Y-198044181D01*
X302083271Y-198010509D01*
X302150614Y-198010509D01*
X302251630Y-198044181D01*
X302318973Y-198111525D01*
X302386317Y-198246212D01*
X302386317Y-199054334D01*
X302824049Y-198616601D01*
%TO.C,U16*%
X281282340Y-180644097D02*
X281854760Y-181216517D01*
X281955775Y-181250188D01*
X282023118Y-181250188D01*
X282124134Y-181216517D01*
X282258821Y-181081830D01*
X282292492Y-180980814D01*
X282292492Y-180913471D01*
X282258821Y-180812456D01*
X281686401Y-180240036D01*
X283100614Y-180240036D02*
X282696553Y-180644097D01*
X282898584Y-180442066D02*
X282191477Y-179734960D01*
X282225149Y-179903318D01*
X282225149Y-180038005D01*
X282191477Y-180139021D01*
X282999599Y-178926838D02*
X282864912Y-179061525D01*
X282831240Y-179162540D01*
X282831240Y-179229883D01*
X282864912Y-179398242D01*
X282965927Y-179566601D01*
X283235301Y-179835975D01*
X283336317Y-179869647D01*
X283403660Y-179869647D01*
X283504675Y-179835975D01*
X283639362Y-179701288D01*
X283673034Y-179600273D01*
X283673034Y-179532929D01*
X283639362Y-179431914D01*
X283471004Y-179263555D01*
X283369988Y-179229883D01*
X283302645Y-179229883D01*
X283201630Y-179263555D01*
X283066943Y-179398242D01*
X283033271Y-179499257D01*
X283033271Y-179566601D01*
X283066943Y-179667616D01*
%TO.C,U1*%
X278263095Y-147039880D02*
X278263095Y-147849404D01*
X278310714Y-147944642D01*
X278358333Y-147992261D01*
X278453571Y-148039880D01*
X278644047Y-148039880D01*
X278739285Y-147992261D01*
X278786904Y-147944642D01*
X278834523Y-147849404D01*
X278834523Y-147039880D01*
X279834523Y-148039880D02*
X279263095Y-148039880D01*
X279548809Y-148039880D02*
X279548809Y-147039880D01*
X279453571Y-147182738D01*
X279358333Y-147277976D01*
X279263095Y-147325595D01*
%TO.C,H1*%
X256413095Y-255808630D02*
X256413095Y-254808630D01*
X256413095Y-255284821D02*
X256984523Y-255284821D01*
X256984523Y-255808630D02*
X256984523Y-254808630D01*
X257984523Y-255808630D02*
X257413095Y-255808630D01*
X257698809Y-255808630D02*
X257698809Y-254808630D01*
X257603571Y-254951488D01*
X257508333Y-255046726D01*
X257413095Y-255094345D01*
%TO.C,LDO1*%
X315882380Y-149840478D02*
X315882380Y-150316668D01*
X314882380Y-150316668D01*
X315882380Y-149507144D02*
X314882380Y-149507144D01*
X314882380Y-149269049D01*
X314930000Y-149126192D01*
X315025238Y-149030954D01*
X315120476Y-148983335D01*
X315310952Y-148935716D01*
X315453809Y-148935716D01*
X315644285Y-148983335D01*
X315739523Y-149030954D01*
X315834761Y-149126192D01*
X315882380Y-149269049D01*
X315882380Y-149507144D01*
X314882380Y-148316668D02*
X314882380Y-148126192D01*
X314930000Y-148030954D01*
X315025238Y-147935716D01*
X315215714Y-147888097D01*
X315549047Y-147888097D01*
X315739523Y-147935716D01*
X315834761Y-148030954D01*
X315882380Y-148126192D01*
X315882380Y-148316668D01*
X315834761Y-148411906D01*
X315739523Y-148507144D01*
X315549047Y-148554763D01*
X315215714Y-148554763D01*
X315025238Y-148507144D01*
X314930000Y-148411906D01*
X314882380Y-148316668D01*
X315882380Y-146935716D02*
X315882380Y-147507144D01*
X315882380Y-147221430D02*
X314882380Y-147221430D01*
X315025238Y-147316668D01*
X315120476Y-147411906D01*
X315168095Y-147507144D01*
%TO.C,U18*%
X319382340Y-180644097D02*
X319954760Y-181216517D01*
X320055775Y-181250188D01*
X320123118Y-181250188D01*
X320224134Y-181216517D01*
X320358821Y-181081830D01*
X320392492Y-180980814D01*
X320392492Y-180913471D01*
X320358821Y-180812456D01*
X319786401Y-180240036D01*
X321200614Y-180240036D02*
X320796553Y-180644097D01*
X320998584Y-180442066D02*
X320291477Y-179734960D01*
X320325149Y-179903318D01*
X320325149Y-180038005D01*
X320291477Y-180139021D01*
X321200614Y-179431914D02*
X321099599Y-179465586D01*
X321032256Y-179465586D01*
X320931240Y-179431914D01*
X320897569Y-179398242D01*
X320863897Y-179297227D01*
X320863897Y-179229883D01*
X320897569Y-179128868D01*
X321032256Y-178994181D01*
X321133271Y-178960509D01*
X321200614Y-178960509D01*
X321301630Y-178994181D01*
X321335301Y-179027853D01*
X321368973Y-179128868D01*
X321368973Y-179196212D01*
X321335301Y-179297227D01*
X321200614Y-179431914D01*
X321166943Y-179532929D01*
X321166943Y-179600273D01*
X321200614Y-179701288D01*
X321335301Y-179835975D01*
X321436317Y-179869647D01*
X321503660Y-179869647D01*
X321604675Y-179835975D01*
X321739362Y-179701288D01*
X321773034Y-179600273D01*
X321773034Y-179532929D01*
X321739362Y-179431914D01*
X321604675Y-179297227D01*
X321503660Y-179263555D01*
X321436317Y-179263555D01*
X321335301Y-179297227D01*
%TO.C,U2*%
X275491082Y-259898578D02*
X276063502Y-260470998D01*
X276164517Y-260504670D01*
X276231861Y-260504670D01*
X276332876Y-260470998D01*
X276467563Y-260336311D01*
X276501235Y-260235296D01*
X276501235Y-260167952D01*
X276467563Y-260066937D01*
X275895143Y-259494517D01*
X276265533Y-259258815D02*
X276265533Y-259191472D01*
X276299204Y-259090456D01*
X276467563Y-258922098D01*
X276568578Y-258888426D01*
X276635922Y-258888426D01*
X276736937Y-258922098D01*
X276804281Y-258989441D01*
X276871624Y-259124128D01*
X276871624Y-259932250D01*
X277309357Y-259494517D01*
%TO.C,H2*%
X323088095Y-255808630D02*
X323088095Y-254808630D01*
X323088095Y-255284821D02*
X323659523Y-255284821D01*
X323659523Y-255808630D02*
X323659523Y-254808630D01*
X324088095Y-254903869D02*
X324135714Y-254856250D01*
X324230952Y-254808630D01*
X324469047Y-254808630D01*
X324564285Y-254856250D01*
X324611904Y-254903869D01*
X324659523Y-254999107D01*
X324659523Y-255094345D01*
X324611904Y-255237202D01*
X324040476Y-255808630D01*
X324659523Y-255808630D01*
D11*
%TO.C,AM0:9*%
X282287500Y-204110416D02*
X282763690Y-204110416D01*
X282192261Y-204396130D02*
X282525595Y-203396130D01*
X282858928Y-204396130D01*
X283192261Y-204396130D02*
X283192261Y-203396130D01*
X283525595Y-204110416D01*
X283858928Y-203396130D01*
X283858928Y-204396130D01*
X284525595Y-203396130D02*
X284620833Y-203396130D01*
X284716071Y-203443750D01*
X284763690Y-203491369D01*
X284811309Y-203586607D01*
X284858928Y-203777083D01*
X284858928Y-204015178D01*
X284811309Y-204205654D01*
X284763690Y-204300892D01*
X284716071Y-204348511D01*
X284620833Y-204396130D01*
X284525595Y-204396130D01*
X284430357Y-204348511D01*
X284382738Y-204300892D01*
X284335119Y-204205654D01*
X284287500Y-204015178D01*
X284287500Y-203777083D01*
X284335119Y-203586607D01*
X284382738Y-203491369D01*
X284430357Y-203443750D01*
X284525595Y-203396130D01*
X285287500Y-204300892D02*
X285335119Y-204348511D01*
X285287500Y-204396130D01*
X285239880Y-204348511D01*
X285287500Y-204300892D01*
X285287500Y-204396130D01*
X285287500Y-203777083D02*
X285335119Y-203824702D01*
X285287500Y-203872321D01*
X285239880Y-203824702D01*
X285287500Y-203777083D01*
X285287500Y-203872321D01*
X285811309Y-204396130D02*
X286001785Y-204396130D01*
X286097023Y-204348511D01*
X286144642Y-204300892D01*
X286239880Y-204158035D01*
X286287500Y-203967559D01*
X286287500Y-203586607D01*
X286239880Y-203491369D01*
X286192261Y-203443750D01*
X286097023Y-203396130D01*
X285906547Y-203396130D01*
X285811309Y-203443750D01*
X285763690Y-203491369D01*
X285716071Y-203586607D01*
X285716071Y-203824702D01*
X285763690Y-203919940D01*
X285811309Y-203967559D01*
X285906547Y-204015178D01*
X286097023Y-204015178D01*
X286192261Y-203967559D01*
X286239880Y-203919940D01*
X286287500Y-203824702D01*
D12*
X277273214Y-192948511D02*
X277273214Y-190948511D01*
X278416071Y-192948511D01*
X278416071Y-190948511D01*
X279368452Y-190948511D02*
X279368452Y-192567559D01*
X279463690Y-192758035D01*
X279558928Y-192853273D01*
X279749404Y-192948511D01*
X280130357Y-192948511D01*
X280320833Y-192853273D01*
X280416071Y-192758035D01*
X280511309Y-192567559D01*
X280511309Y-190948511D01*
X281463690Y-192948511D02*
X281463690Y-190948511D01*
X282130357Y-192377083D01*
X282797023Y-190948511D01*
X282797023Y-192948511D01*
X284035119Y-191805654D02*
X283844642Y-191710416D01*
X283749404Y-191615178D01*
X283654166Y-191424702D01*
X283654166Y-191329464D01*
X283749404Y-191138988D01*
X283844642Y-191043750D01*
X284035119Y-190948511D01*
X284416071Y-190948511D01*
X284606547Y-191043750D01*
X284701785Y-191138988D01*
X284797023Y-191329464D01*
X284797023Y-191424702D01*
X284701785Y-191615178D01*
X284606547Y-191710416D01*
X284416071Y-191805654D01*
X284035119Y-191805654D01*
X283844642Y-191900892D01*
X283749404Y-191996130D01*
X283654166Y-192186607D01*
X283654166Y-192567559D01*
X283749404Y-192758035D01*
X283844642Y-192853273D01*
X284035119Y-192948511D01*
X284416071Y-192948511D01*
X284606547Y-192853273D01*
X284701785Y-192758035D01*
X284797023Y-192567559D01*
X284797023Y-192186607D01*
X284701785Y-191996130D01*
X284606547Y-191900892D01*
X284416071Y-191805654D01*
D11*
%TO.C,AM1:6*%
X301337500Y-204110416D02*
X301813690Y-204110416D01*
X301242261Y-204396130D02*
X301575595Y-203396130D01*
X301908928Y-204396130D01*
X302242261Y-204396130D02*
X302242261Y-203396130D01*
X302575595Y-204110416D01*
X302908928Y-203396130D01*
X302908928Y-204396130D01*
X303908928Y-204396130D02*
X303337500Y-204396130D01*
X303623214Y-204396130D02*
X303623214Y-203396130D01*
X303527976Y-203538988D01*
X303432738Y-203634226D01*
X303337500Y-203681845D01*
X304337500Y-204300892D02*
X304385119Y-204348511D01*
X304337500Y-204396130D01*
X304289880Y-204348511D01*
X304337500Y-204300892D01*
X304337500Y-204396130D01*
X304337500Y-203777083D02*
X304385119Y-203824702D01*
X304337500Y-203872321D01*
X304289880Y-203824702D01*
X304337500Y-203777083D01*
X304337500Y-203872321D01*
X305242261Y-203396130D02*
X305051785Y-203396130D01*
X304956547Y-203443750D01*
X304908928Y-203491369D01*
X304813690Y-203634226D01*
X304766071Y-203824702D01*
X304766071Y-204205654D01*
X304813690Y-204300892D01*
X304861309Y-204348511D01*
X304956547Y-204396130D01*
X305147023Y-204396130D01*
X305242261Y-204348511D01*
X305289880Y-204300892D01*
X305337500Y-204205654D01*
X305337500Y-203967559D01*
X305289880Y-203872321D01*
X305242261Y-203824702D01*
X305147023Y-203777083D01*
X304956547Y-203777083D01*
X304861309Y-203824702D01*
X304813690Y-203872321D01*
X304766071Y-203967559D01*
D12*
X296323214Y-192948511D02*
X296323214Y-190948511D01*
X297466071Y-192948511D01*
X297466071Y-190948511D01*
X298418452Y-190948511D02*
X298418452Y-192567559D01*
X298513690Y-192758035D01*
X298608928Y-192853273D01*
X298799404Y-192948511D01*
X299180357Y-192948511D01*
X299370833Y-192853273D01*
X299466071Y-192758035D01*
X299561309Y-192567559D01*
X299561309Y-190948511D01*
X300513690Y-192948511D02*
X300513690Y-190948511D01*
X301180357Y-192377083D01*
X301847023Y-190948511D01*
X301847023Y-192948511D01*
X302894642Y-192948511D02*
X303275595Y-192948511D01*
X303466071Y-192853273D01*
X303561309Y-192758035D01*
X303751785Y-192472321D01*
X303847023Y-192091369D01*
X303847023Y-191329464D01*
X303751785Y-191138988D01*
X303656547Y-191043750D01*
X303466071Y-190948511D01*
X303085119Y-190948511D01*
X302894642Y-191043750D01*
X302799404Y-191138988D01*
X302704166Y-191329464D01*
X302704166Y-191805654D01*
X302799404Y-191996130D01*
X302894642Y-192091369D01*
X303085119Y-192186607D01*
X303466071Y-192186607D01*
X303656547Y-192091369D01*
X303751785Y-191996130D01*
X303847023Y-191805654D01*
D13*
%TO.C,AM0:7*%
X268922500Y-185578750D02*
X254952500Y-185578750D01*
X254952500Y-185578750D02*
X254952500Y-171608750D01*
X268922500Y-171608750D02*
X268922500Y-185578750D01*
X254952500Y-171608750D02*
X268922500Y-171608750D01*
D14*
X265431278Y-181843750D02*
G75*
G03*
X265431278Y-181843750I-243778J0D01*
G01*
D13*
%TO.C,U9*%
X285345174Y-221056000D02*
X284885554Y-221515619D01*
X285345174Y-221056000D02*
X286529577Y-219871596D01*
X283139000Y-218849826D02*
X282679381Y-219309446D01*
X283139000Y-218849826D02*
X283598620Y-218390207D01*
%TO.C,U17*%
X304395174Y-182956000D02*
X304854793Y-182496380D01*
X304395174Y-182956000D02*
X303935554Y-183415619D01*
X302189000Y-180749826D02*
X302648620Y-180290207D01*
X302189000Y-180749826D02*
X301004597Y-181934230D01*
%TO.C,U14*%
X264089000Y-199799826D02*
X264548620Y-199340207D01*
X266295174Y-202006000D02*
X266754793Y-201546380D01*
X264089000Y-199799826D02*
X262904597Y-200984230D01*
X266295174Y-202006000D02*
X265835554Y-202465619D01*
%TO.C,AM1:1*%
X307022500Y-242728750D02*
X293052500Y-242728750D01*
X307022500Y-228758750D02*
X307022500Y-242728750D01*
X293052500Y-242728750D02*
X293052500Y-228758750D01*
X293052500Y-228758750D02*
X307022500Y-228758750D01*
D14*
X303531278Y-238993750D02*
G75*
G03*
X303531278Y-238993750I-243778J0D01*
G01*
D13*
%TO.C,AM0:0*%
X264477500Y-247808750D02*
X278447500Y-247808750D01*
X278447500Y-247808750D02*
X278447500Y-261778750D01*
X278447500Y-261778750D02*
X264477500Y-261778750D01*
X264477500Y-261778750D02*
X264477500Y-247808750D01*
D14*
X274956278Y-258043750D02*
G75*
G03*
X274956278Y-258043750I-243778J0D01*
G01*
D13*
%TO.C,AM1:8*%
X326072500Y-185578750D02*
X312102500Y-185578750D01*
X326072500Y-171608750D02*
X326072500Y-185578750D01*
X312102500Y-185578750D02*
X312102500Y-171608750D01*
X312102500Y-171608750D02*
X326072500Y-171608750D01*
D14*
X322581278Y-181843750D02*
G75*
G03*
X322581278Y-181843750I-243778J0D01*
G01*
D13*
%TO.C,AM0:1*%
X254952500Y-228758750D02*
X268922500Y-228758750D01*
X254952500Y-242728750D02*
X254952500Y-228758750D01*
X268922500Y-242728750D02*
X254952500Y-242728750D01*
X268922500Y-228758750D02*
X268922500Y-242728750D01*
D14*
X265431278Y-238993750D02*
G75*
G03*
X265431278Y-238993750I-243778J0D01*
G01*
D13*
%TO.C,AM1:2*%
X307022500Y-223678750D02*
X293052500Y-223678750D01*
X293052500Y-223678750D02*
X293052500Y-209708750D01*
X307022500Y-209708750D02*
X307022500Y-223678750D01*
X293052500Y-209708750D02*
X307022500Y-209708750D01*
D14*
X303531278Y-219943750D02*
G75*
G03*
X303531278Y-219943750I-243778J0D01*
G01*
D13*
%TO.C,U3*%
X302189000Y-256949826D02*
X301729381Y-257409446D01*
X304395174Y-259156000D02*
X305579577Y-257971596D01*
X304395174Y-259156000D02*
X303935554Y-259615619D01*
X302189000Y-256949826D02*
X302648620Y-256490207D01*
%TO.C,U6*%
X285345174Y-240106000D02*
X284885554Y-240565619D01*
X283139000Y-237899826D02*
X283598620Y-237440207D01*
X285345174Y-240106000D02*
X286529577Y-238921596D01*
X283139000Y-237899826D02*
X282679381Y-238359446D01*
%TO.C,U11*%
X323445174Y-211531000D02*
X323904793Y-211071380D01*
X321239000Y-209324826D02*
X321698620Y-208865207D01*
X321239000Y-209324826D02*
X320054597Y-210509230D01*
X323445174Y-211531000D02*
X322985554Y-211990619D01*
%TO.C,AM1:14*%
X312102500Y-214153750D02*
X312102500Y-200183750D01*
X312102500Y-200183750D02*
X326072500Y-200183750D01*
X326072500Y-214153750D02*
X312102500Y-214153750D01*
X326072500Y-200183750D02*
X326072500Y-214153750D01*
D14*
X322581278Y-210418750D02*
G75*
G03*
X322581278Y-210418750I-243778J0D01*
G01*
D13*
%TO.C,F1*%
X310692780Y-140060003D02*
X310367222Y-140060003D01*
X310692780Y-139040003D02*
X310367222Y-139040003D01*
%TO.C,AM0:8*%
X274002500Y-185578750D02*
X274002500Y-171608750D01*
X287972500Y-171608750D02*
X287972500Y-185578750D01*
X274002500Y-171608750D02*
X287972500Y-171608750D01*
X287972500Y-185578750D02*
X274002500Y-185578750D01*
D14*
X284481278Y-181843750D02*
G75*
G03*
X284481278Y-181843750I-243778J0D01*
G01*
D13*
%TO.C,U13*%
X285345174Y-202006000D02*
X284885554Y-202465619D01*
X285345174Y-202006000D02*
X285804793Y-201546380D01*
X283139000Y-199799826D02*
X283598620Y-199340207D01*
X283139000Y-199799826D02*
X281954597Y-200984230D01*
%TO.C,J1*%
X255903750Y-167416250D02*
X255903750Y-166366250D01*
X255903750Y-166366250D02*
X256893750Y-166366250D01*
X255903750Y-161196250D02*
X255903750Y-162246250D01*
X254753750Y-167416250D02*
X255903750Y-167416250D01*
X254753750Y-161196250D02*
X255903750Y-161196250D01*
X252783750Y-166246250D02*
X252783750Y-162366250D01*
D10*
%TO.C,AM0*%
X270968750Y-207831250D02*
X269368750Y-207831250D01*
X276718750Y-216256250D02*
X276718750Y-215956250D01*
X270968750Y-207606250D02*
X270968750Y-207831250D01*
X270968750Y-216256250D02*
X270968750Y-215956250D01*
X270968750Y-207606250D02*
X276718750Y-207606250D01*
X276718750Y-207606250D02*
X276718750Y-207906250D01*
X270968750Y-216256250D02*
X276718750Y-216256250D01*
D13*
%TO.C,R1*%
X259110000Y-162453641D02*
X259110000Y-162146359D01*
X258350000Y-162453641D02*
X258350000Y-162146359D01*
%TO.C,R2*%
X259110000Y-164156359D02*
X259110000Y-164463641D01*
X258350000Y-164156359D02*
X258350000Y-164463641D01*
%TO.C,FB1*%
X309090000Y-142649624D02*
X309090000Y-141850380D01*
X307970000Y-142649624D02*
X307970000Y-141850380D01*
%TO.C,U15*%
X264089000Y-180749826D02*
X264548620Y-180290207D01*
X266295174Y-182956000D02*
X266754793Y-182496380D01*
X264089000Y-180749826D02*
X262904597Y-181934230D01*
X266295174Y-182956000D02*
X265835554Y-183415619D01*
%TO.C,AM0:2*%
X268922500Y-209708750D02*
X268922500Y-223678750D01*
X254952500Y-209708750D02*
X268922500Y-209708750D01*
X254952500Y-223678750D02*
X254952500Y-209708750D01*
X268922500Y-223678750D02*
X254952500Y-223678750D01*
D14*
X265431278Y-219943750D02*
G75*
G03*
X265431278Y-219943750I-243778J0D01*
G01*
D10*
%TO.C,AM1*%
X304306250Y-207606250D02*
X304306250Y-207831250D01*
X304306250Y-207831250D02*
X302706250Y-207831250D01*
X310056250Y-216256250D02*
X310056250Y-215956250D01*
X310056250Y-207606250D02*
X310056250Y-207906250D01*
X304306250Y-216256250D02*
X310056250Y-216256250D01*
X304306250Y-216256250D02*
X304306250Y-215956250D01*
X304306250Y-207606250D02*
X310056250Y-207606250D01*
D13*
%TO.C,C2*%
X311890000Y-143157836D02*
X311890000Y-142942164D01*
X311170000Y-143157836D02*
X311170000Y-142942164D01*
%TO.C,U5*%
X302189000Y-237899826D02*
X302648620Y-237440207D01*
X302189000Y-237899826D02*
X301729381Y-238359446D01*
X304395174Y-240106000D02*
X305579577Y-238921596D01*
X304395174Y-240106000D02*
X303935554Y-240565619D01*
%TO.C,U8*%
X264089000Y-221056000D02*
X263629381Y-220596380D01*
X264089000Y-221056000D02*
X265273404Y-222240403D01*
X266295174Y-218849826D02*
X265835554Y-218390207D01*
X266295174Y-218849826D02*
X266754793Y-219309446D01*
%TO.C,D1*%
X314430001Y-139400001D02*
X312430001Y-139400001D01*
X314430001Y-139400001D02*
X314430001Y-143300001D01*
X312430001Y-139400001D02*
X312430001Y-143300001D01*
%TO.C,AM1:15*%
X326072500Y-252253750D02*
X312102500Y-252253750D01*
X312102500Y-252253750D02*
X312102500Y-238283750D01*
X312102500Y-238283750D02*
X326072500Y-238283750D01*
X326072500Y-238283750D02*
X326072500Y-252253750D01*
D14*
X322581278Y-248518750D02*
G75*
G03*
X322581278Y-248518750I-243778J0D01*
G01*
D13*
%TO.C,AM1:0*%
X307022500Y-247808750D02*
X307022500Y-261778750D01*
X307022500Y-261778750D02*
X293052500Y-261778750D01*
X293052500Y-247808750D02*
X307022500Y-247808750D01*
X293052500Y-261778750D02*
X293052500Y-247808750D01*
D14*
X303531278Y-258043750D02*
G75*
G03*
X303531278Y-258043750I-243778J0D01*
G01*
D13*
%TO.C,U7*%
X264089000Y-240106000D02*
X263629381Y-239646380D01*
X266295174Y-237899826D02*
X266754793Y-238359446D01*
X266295174Y-237899826D02*
X265835554Y-237440207D01*
X264089000Y-240106000D02*
X265273404Y-241290403D01*
%TO.C,AM1:7*%
X293052500Y-185578750D02*
X293052500Y-171608750D01*
X307022500Y-185578750D02*
X293052500Y-185578750D01*
X307022500Y-171608750D02*
X307022500Y-185578750D01*
X293052500Y-171608750D02*
X307022500Y-171608750D01*
D14*
X303531278Y-181843750D02*
G75*
G03*
X303531278Y-181843750I-243778J0D01*
G01*
D13*
%TO.C,AM0:15*%
X287972500Y-228758750D02*
X287972500Y-242728750D01*
X274002500Y-228758750D02*
X287972500Y-228758750D01*
X274002500Y-242728750D02*
X274002500Y-228758750D01*
X287972500Y-242728750D02*
X274002500Y-242728750D01*
D14*
X284481278Y-238993750D02*
G75*
G03*
X284481278Y-238993750I-243778J0D01*
G01*
D13*
%TO.C,C1*%
X309870000Y-143157838D02*
X309870000Y-142942166D01*
X310590000Y-143157838D02*
X310590000Y-142942166D01*
%TO.C,AM0:6*%
X254952500Y-204628750D02*
X254952500Y-190658750D01*
X268922500Y-190658750D02*
X268922500Y-204628750D01*
X268922500Y-204628750D02*
X254952500Y-204628750D01*
X254952500Y-190658750D02*
X268922500Y-190658750D01*
D14*
X265431278Y-200893750D02*
G75*
G03*
X265431278Y-200893750I-243778J0D01*
G01*
D13*
%TO.C,U10*%
X302189000Y-218849826D02*
X301729381Y-219309446D01*
X304395174Y-221056000D02*
X305579577Y-219871596D01*
X304395174Y-221056000D02*
X303935554Y-221515619D01*
X302189000Y-218849826D02*
X302648620Y-218390207D01*
%TO.C,AM0:14*%
X287972500Y-209708750D02*
X287972500Y-223678750D01*
X274002500Y-209708750D02*
X287972500Y-209708750D01*
X274002500Y-223678750D02*
X274002500Y-209708750D01*
X287972500Y-223678750D02*
X274002500Y-223678750D01*
D14*
X284481278Y-219943750D02*
G75*
G03*
X284481278Y-219943750I-243778J0D01*
G01*
D13*
%TO.C,U4*%
X323445174Y-249631000D02*
X324629577Y-248446596D01*
X321239000Y-247424826D02*
X321698620Y-246965207D01*
X321239000Y-247424826D02*
X320779381Y-247884446D01*
X323445174Y-249631000D02*
X322985554Y-250090619D01*
%TO.C,U12*%
X304395174Y-202006000D02*
X304854793Y-201546380D01*
X302189000Y-199799826D02*
X302648620Y-199340207D01*
X304395174Y-202006000D02*
X303935554Y-202465619D01*
X302189000Y-199799826D02*
X301004597Y-200984230D01*
%TO.C,U16*%
X285345174Y-182956000D02*
X284885554Y-183415619D01*
X283139000Y-180749826D02*
X283598620Y-180290207D01*
X285345174Y-182956000D02*
X285804793Y-182496380D01*
X283139000Y-180749826D02*
X281954597Y-181934230D01*
%TO.C,LDO1*%
X314340000Y-144550002D02*
X314340000Y-150560002D01*
X307520000Y-146800002D02*
X307520000Y-150560002D01*
X314340000Y-150560002D02*
X313080000Y-150560002D01*
X307520000Y-150560002D02*
X308780000Y-150560002D01*
%TO.C,U18*%
X323445174Y-182956000D02*
X323904793Y-182496380D01*
X321239000Y-180749826D02*
X320054597Y-181934230D01*
X323445174Y-182956000D02*
X322985554Y-183415619D01*
X321239000Y-180749826D02*
X321698620Y-180290207D01*
%TO.C,U2*%
X273616913Y-256946913D02*
X273157294Y-257406533D01*
X273616913Y-256946913D02*
X274076533Y-256487294D01*
X275823087Y-259153087D02*
X277007490Y-257968683D01*
X275823087Y-259153087D02*
X275363467Y-259612706D01*
%TO.C,AM0:9*%
X274002500Y-190658750D02*
X287972500Y-190658750D01*
X287972500Y-190658750D02*
X287972500Y-204628750D01*
X274002500Y-204628750D02*
X274002500Y-190658750D01*
X287972500Y-204628750D02*
X274002500Y-204628750D01*
D14*
X284481278Y-200893750D02*
G75*
G03*
X284481278Y-200893750I-243778J0D01*
G01*
D13*
%TO.C,AM1:6*%
X293052500Y-190658750D02*
X307022500Y-190658750D01*
X293052500Y-204628750D02*
X293052500Y-190658750D01*
X307022500Y-204628750D02*
X293052500Y-204628750D01*
X307022500Y-190658750D02*
X307022500Y-204628750D01*
D14*
X303531278Y-200893750D02*
G75*
G03*
X303531278Y-200893750I-243778J0D01*
G01*
%TD*%
%LPC*%
D15*
%TO.C,U9*%
X285576751Y-219961752D03*
X284233248Y-218618249D03*
X283579174Y-220615826D03*
%TD*%
D16*
%TO.C,U17*%
X301957423Y-181844074D03*
X303300926Y-183187577D03*
X303955000Y-181190000D03*
%TD*%
%TO.C,U14*%
X263857423Y-200894074D03*
X265200926Y-202237577D03*
X265855000Y-200240000D03*
%TD*%
D15*
%TO.C,U3*%
X304626751Y-258061752D03*
X303283248Y-256718249D03*
X302629174Y-258715826D03*
%TD*%
%TO.C,U6*%
X285576751Y-239011752D03*
X284233248Y-237668249D03*
X283579174Y-239665826D03*
%TD*%
D16*
%TO.C,U11*%
X321007423Y-210419074D03*
X322350926Y-211762577D03*
X323005000Y-209765000D03*
%TD*%
D17*
%TO.C,F1*%
X311317501Y-139550003D03*
X309742501Y-139550003D03*
%TD*%
D16*
%TO.C,U13*%
X282907423Y-200894074D03*
X284250926Y-202237577D03*
X284905000Y-200240000D03*
%TD*%
D18*
%TO.C,J1*%
X256118750Y-165806250D03*
X256118750Y-164806250D03*
X256118750Y-163806250D03*
X256118750Y-162806250D03*
D19*
X253593750Y-167106250D03*
X253593750Y-161506250D03*
%TD*%
D20*
%TO.C,AM0*%
X270243750Y-208356250D03*
X270243750Y-209006250D03*
X270243750Y-209656250D03*
X270243750Y-210306250D03*
X270243750Y-210956250D03*
X270243750Y-211606250D03*
X270243750Y-212256250D03*
X270243750Y-212906250D03*
X270243750Y-213556250D03*
X270243750Y-214206250D03*
X270243750Y-214856250D03*
X270243750Y-215506250D03*
X277443750Y-215506250D03*
X277443750Y-214856250D03*
X277443750Y-214206250D03*
X277443750Y-213556250D03*
X277443750Y-212906250D03*
X277443750Y-212256250D03*
X277443750Y-211606250D03*
X277443750Y-210956250D03*
X277443750Y-210306250D03*
X277443750Y-209656250D03*
X277443750Y-209006250D03*
X277443750Y-208356250D03*
%TD*%
D21*
%TO.C,R1*%
X258730000Y-162810000D03*
X258730000Y-161790000D03*
%TD*%
D22*
%TO.C,R2*%
X258730000Y-163800000D03*
X258730000Y-164820000D03*
%TD*%
D23*
%TO.C,FB1*%
X308530000Y-143312502D03*
X308530000Y-141187502D03*
%TD*%
D16*
%TO.C,U15*%
X263857423Y-181844074D03*
X265200926Y-183187577D03*
X265855000Y-181190000D03*
%TD*%
D24*
%TO.C,H4*%
X257175000Y-147637500D03*
%TD*%
D20*
%TO.C,AM1*%
X303581250Y-208356250D03*
X303581250Y-209006250D03*
X303581250Y-209656250D03*
X303581250Y-210306250D03*
X303581250Y-210956250D03*
X303581250Y-211606250D03*
X303581250Y-212256250D03*
X303581250Y-212906250D03*
X303581250Y-213556250D03*
X303581250Y-214206250D03*
X303581250Y-214856250D03*
X303581250Y-215506250D03*
X310781250Y-215506250D03*
X310781250Y-214856250D03*
X310781250Y-214206250D03*
X310781250Y-213556250D03*
X310781250Y-212906250D03*
X310781250Y-212256250D03*
X310781250Y-211606250D03*
X310781250Y-210956250D03*
X310781250Y-210306250D03*
X310781250Y-209656250D03*
X310781250Y-209006250D03*
X310781250Y-208356250D03*
%TD*%
D25*
%TO.C,FID2*%
X318880000Y-142300000D03*
%TD*%
D26*
%TO.C,C2*%
X311530000Y-143530000D03*
X311530000Y-142570000D03*
%TD*%
D15*
%TO.C,U5*%
X304626751Y-239011752D03*
X303283248Y-237668249D03*
X302629174Y-239665826D03*
%TD*%
D27*
%TO.C,U8*%
X265183248Y-221287577D03*
X266526751Y-219944074D03*
X264529174Y-219290000D03*
%TD*%
D28*
%TO.C,D1*%
X313430001Y-140000001D03*
X313430001Y-143300001D03*
%TD*%
D24*
%TO.C,H3*%
X323850000Y-147637500D03*
%TD*%
D27*
%TO.C,U7*%
X265183248Y-240337577D03*
X266526751Y-238994074D03*
X264529174Y-238340000D03*
%TD*%
D26*
%TO.C,C1*%
X310230000Y-143530002D03*
X310230000Y-142570002D03*
%TD*%
D15*
%TO.C,U10*%
X304626751Y-219961752D03*
X303283248Y-218618249D03*
X302629174Y-220615826D03*
%TD*%
D25*
%TO.C,FID3*%
X262910000Y-167070000D03*
%TD*%
D15*
%TO.C,U4*%
X323676751Y-248536752D03*
X322333248Y-247193249D03*
X321679174Y-249190826D03*
%TD*%
D25*
%TO.C,FID1*%
X287320000Y-251400000D03*
%TD*%
D16*
%TO.C,U12*%
X301957423Y-200894074D03*
X303300926Y-202237577D03*
X303955000Y-200240000D03*
%TD*%
%TO.C,U16*%
X282907423Y-181844074D03*
X284250926Y-183187577D03*
X284905000Y-181190000D03*
%TD*%
D29*
%TO.C,U1*%
X253950000Y-155130500D03*
X256490000Y-155384500D03*
X259030000Y-155130500D03*
X261570000Y-155384500D03*
X264110000Y-155130500D03*
X266650000Y-155384500D03*
X269190000Y-155130500D03*
X271730000Y-155384500D03*
X274270000Y-155130500D03*
X276810000Y-155384500D03*
X279350000Y-155130500D03*
X281890000Y-155384500D03*
X284430000Y-155130500D03*
X286970000Y-155384500D03*
X289510000Y-155130500D03*
X292050000Y-155384500D03*
X294590000Y-155130500D03*
X297130000Y-155384500D03*
X299670000Y-155130500D03*
X302210000Y-155384500D03*
X302210000Y-139890500D03*
X299670000Y-140144500D03*
X297130000Y-139890500D03*
X294590000Y-140144500D03*
X292050000Y-139890500D03*
X289510000Y-140144500D03*
X286970000Y-139890500D03*
X284430000Y-140144500D03*
X281890000Y-139890500D03*
X279350000Y-140144500D03*
X276810000Y-139890500D03*
X274270000Y-140144500D03*
X271730000Y-139890500D03*
X269190000Y-140144500D03*
X266650000Y-139890500D03*
X264110000Y-140144500D03*
X261570000Y-139890500D03*
X259030000Y-140144500D03*
X256490000Y-139890500D03*
X253950000Y-140144500D03*
D30*
X298227000Y-151447500D03*
D29*
X297973000Y-148907500D03*
X298227000Y-146367500D03*
X297973000Y-143827500D03*
%TD*%
D24*
%TO.C,H1*%
X257175000Y-259556250D03*
%TD*%
D31*
%TO.C,LDO1*%
X313230000Y-145500002D03*
D32*
X310930000Y-151800002D03*
D31*
X310930000Y-145500002D03*
X308630000Y-145500002D03*
%TD*%
D16*
%TO.C,U18*%
X321007423Y-181844074D03*
X322350926Y-183187577D03*
X323005000Y-181190000D03*
%TD*%
D15*
%TO.C,U2*%
X276054664Y-258058839D03*
X274711161Y-256715336D03*
X274057087Y-258712913D03*
%TD*%
D24*
%TO.C,H2*%
X323850000Y-259556250D03*
%TD*%
M02*
